<svg width="178" height="180" viewBox="0 0 178 180" fill="none" xmlns="http://www.w3.org/2000/svg">
<path d="M33.6044 104.594L0 153.604L32.4454 147.553L38.4961 180L70.399 133.472L33.6044 104.594Z" fill="#F57F41"/>
<path d="M144.274 104.594L107.479 133.472L139.384 180L145.433 147.553L177.878 153.604L144.274 104.594Z" fill="#EA623C"/>
<path d="M88.4878 0C48.5182 0 16 32.5195 16 72.4933C16 112.466 48.5182 144.985 88.4878 144.985C128.459 144.985 160.978 112.466 160.978 72.4919C160.978 32.5195 128.459 0 88.4878 0V0Z" fill="#FFE07F"/>
<path d="M88.9384 0V144.985C128.909 144.985 161.429 112.466 161.429 72.4919C161.429 32.5195 128.909 0 88.9384 0V0Z" fill="#FFD23A"/>
<path d="M49.6343 45.6035H65.7476V102H49.6343V61.7168H45.606L49.6343 45.6035ZM110.252 45.6035C123.68 45.6035 130.394 51.7668 130.394 64.0935C130.394 75.9368 123.68 81.8584 110.252 81.8584H102.196C96.8247 81.8584 94.1392 82.4089 94.1392 83.51V85.8867H130.394V102H78.0259V83.51C78.0259 71.6667 86.0825 65.7451 102.196 65.7451H110.252C112.938 65.7451 114.281 65.1946 114.281 64.0935C114.281 62.509 112.938 61.7168 110.252 61.7168H82.0542L86.0825 45.6035H110.252Z" fill="#64CD48"/>
</svg>
