<svg width="28" height="29" fill="none" xmlns="http://www.w3.org/2000/svg"><path d="M23.9 4.72C21.255 2.127 17.74.697 14 .697s-7.255 1.43-9.9 4.025C1.457 7.316 0 10.767 0 14.437c0 2.902.902 5.656 2.615 7.996L.018 28.25l6.493-2.201A14.122 14.122 0 0014 28.178c3.74 0 7.255-1.43 9.9-4.025 2.644-2.595 4.1-6.046 4.1-9.716 0-3.67-1.456-7.121-4.1-9.716zm-1.643 14.437c-1.28 1.856-1.28 1.856-1.308 1.89-.711.853-1.822 1.294-3.209 1.294-.516 0-1.07-.06-1.656-.185-1.97-.415-4.121-1.5-6.057-3.056-1.935-1.556-3.443-3.412-4.246-5.226-.88-1.99-.828-3.73.15-4.901.028-.034.028-.034 1.7-1.705l.667-.667 3.689 4.814-1.302 1.56c.634.864 1.384 1.784 2.33 2.545.946.76 2.013 1.3 3 1.74l1.312-1.571 5.451 2.712-.521.756z" fill="#fff" fill-opacity=".99"/></svg>