<svg width="16" height="16" viewBox="0 0 16 16" fill="none" xmlns="http://www.w3.org/2000/svg">
<mask id="mask0" mask-type="alpha" maskUnits="userSpaceOnUse" x="0" y="0" width="16" height="16">
<rect width="16" height="16" fill="#C4C4C4"/>
</mask>
<g mask="url(#mask0)">
<path d="M12.1924 5.71897L7.98261 9.42864L3.77189 5.71892C3.60423 5.57121 3.34866 5.58744 3.201 5.755C3.0534 5.9226 3.06947 6.17817 3.23714 6.32588L7.71528 10.2712C7.7917 10.3385 7.88721 10.3722 7.98266 10.3722C8.07811 10.3722 8.17368 10.3385 8.25009 10.2712L12.7273 6.32583C12.8949 6.17817 12.911 5.92255 12.7633 5.75494C12.6156 5.58749 12.3601 5.57132 12.1924 5.71897Z" fill="white"/>
<path d="M13.2688 4H2.69556C2.02653 4 1.48218 4.5443 1.48218 5.21339V11.631C1.48218 12.3 2.02653 12.8443 2.69556 12.8443H13.2688C13.9378 12.8443 14.4822 12.3 14.4822 11.631V5.21339C14.4822 4.54435 13.9378 4 13.2688 4ZM13.6733 11.631C13.6733 11.854 13.4918 12.0354 13.2688 12.0354H2.69556C2.47252 12.0354 2.2911 11.854 2.2911 11.631V5.21339C2.2911 4.99039 2.47252 4.80892 2.69556 4.80892H13.2688C13.4918 4.80892 13.6733 4.99039 13.6733 5.21339V11.631Z" fill="white"/>
</g>
</svg>
