<svg width="11" height="15" fill="none" xmlns="http://www.w3.org/2000/svg"><path d="M9.175 5.508H6.844a.917.917 0 01-.881-1.17L6.993.754C7.172.125 6.346-.284 5.956.24L.186 8.003a.932.932 0 00.748 1.489h2.331c.61 0 1.05.583.881 1.17l-1.03 3.585c-.18.628.646 1.037 1.036.513l5.77-7.763a.932.932 0 00-.747-1.489z" fill="url(#paint0_linear)"/><path d="M9.175 5.508H7.352A6.624 6.624 0 01.067 8.902c.133.333.451.59.867.59h2.331c.61 0 1.05.583.881 1.17l-1.03 3.585c-.18.628.646 1.037 1.036.513l5.77-7.764a.932.932 0 00-.747-1.488z" fill="url(#paint1_linear)"/><defs><linearGradient id="paint0_linear" x1=".44" y1="7.5" x2="8.178" y2="7.5" gradientUnits="userSpaceOnUse"><stop stop-color="#FFF9DF"/><stop offset=".593" stop-color="#FFE177"/><stop offset="1" stop-color="#FEB137"/></linearGradient><linearGradient id="paint1_linear" x1="3.274" y1="10.254" x2="9.357" y2="10.254" gradientUnits="userSpaceOnUse"><stop stop-color="#FFE177"/><stop offset="1" stop-color="#FEB137"/></linearGradient></defs></svg>