<svg width="16" height="16" viewBox="0 0 16 16" fill="none" xmlns="http://www.w3.org/2000/svg">
<mask id="mask0" mask-type="alpha" maskUnits="userSpaceOnUse" x="0" y="0" width="16" height="16">
<rect width="16" height="16" fill="#C4C4C4"/>
</mask>
<g mask="url(#mask0)">
<path d="M8.12787 1C5.15311 1 2.73303 3.4204 2.73303 6.39548C2.73303 8.52132 3.62304 10.6717 5.30684 12.6141C6.56446 14.0649 7.8108 14.8869 7.86329 14.9212C7.94364 14.9738 8.03579 15 8.12794 15C8.22002 15 8.31217 14.9738 8.39258 14.9212C8.445 14.8869 9.69154 14.0649 10.9492 12.6142C12.6331 10.6717 13.5232 8.52132 13.5232 6.39548C13.5231 3.4204 11.1028 1 8.12787 1ZM8.12787 13.9225C7.13566 13.1832 3.70029 10.3376 3.70029 6.39548C3.70029 3.95374 5.68645 1.96726 8.12787 1.96726C10.5695 1.96726 12.5558 3.95374 12.5558 6.39548C12.5558 10.3376 9.12015 13.1832 8.12787 13.9225Z" fill="white"/>
<path d="M8.12819 4.25317C6.94749 4.25317 5.98694 5.21379 5.98694 6.39461C5.98694 7.57512 6.94749 8.53554 8.12819 8.53554C9.30888 8.53554 10.2694 7.57512 10.2694 6.39461C10.2694 5.21385 9.30882 4.25317 8.12819 4.25317ZM8.12819 7.56828C7.48083 7.56828 6.95419 7.04177 6.95419 6.39461C6.95419 5.74713 7.48083 5.22043 8.12819 5.22043C8.77547 5.22043 9.30211 5.74713 9.30211 6.39461C9.30211 7.04177 8.77547 7.56828 8.12819 7.56828Z" fill="white"/>
</g>
</svg>
