<svg width="56" height="56" fill="none" xmlns="http://www.w3.org/2000/svg"><g filter="url(#filter0_d)"><path d="M41.895 32.698l-12.36 3.726c-.117.035-.234.067-.35.1v7.552c.339-.12.678-.245 1.015-.378l12.364-4.878c1.309-.516 2.19-1.944 2.19-3.551 0-1.738-1.412-3.007-2.859-2.571z" fill="url(#paint0_linear)"/><path d="M46.13 33.183L33.77 36.91a22.155 22.155 0 01-4.586.87v7.944a30.083 30.083 0 005.252-1.54L46.8 39.305c1.308-.516 2.189-1.944 2.189-3.55 0-1.738-1.412-3.008-2.858-2.572z" fill="url(#paint1_linear)"/><path d="M8.455 35.788v8.126l9.783 2.88c6.342 1.868 13.014 1.56 19.209-.883l12.364-4.878C51.12 40.516 52 39.088 52 37.482c0-1.738-1.411-3.007-2.858-2.571l-12.36 3.726c-5.737 1.729-11.813 1.071-17.176-1.86l-7.177-3.922c-1.848-1.01-3.974.558-3.974 2.933z" fill="url(#paint2_linear)"/><path d="M38.533 14.08h-5.959a2.343 2.343 0 01-2.252-2.99l2.633-9.166c.46-1.606-1.652-2.65-2.648-1.31L15.555 20.459c-1.169 1.572-.047 3.804 1.912 3.804h5.96a2.343 2.343 0 012.251 2.99l-2.632 9.166c-.461 1.606 1.65 2.651 2.648 1.31l14.751-19.844c1.169-1.572.047-3.804-1.912-3.804z" fill="url(#paint3_linear)"/><path d="M38.533 14.08h-4.66c-2.834 5.39-8.486 9.065-14.998 9.065-1.244 0-2.456-.136-3.623-.39a2.361 2.361 0 002.215 1.508h5.959a2.343 2.343 0 012.252 2.99l-2.632 9.166c-.462 1.606 1.65 2.651 2.647 1.31l14.752-19.844c1.169-1.572.047-3.804-1.912-3.804z" fill="url(#paint4_linear)"/><path d="M12.007 29.616a6.47 6.47 0 017.494 1.2l.695.694a13.902 13.902 0 009.83 4.072h2.92a3.65 3.65 0 013.65 3.65c0 .92-.744 1.665-1.664 1.665H8.455v-5.506a6.47 6.47 0 013.552-5.775z" fill="url(#paint5_linear)"/><path d="M6.035 45.94V27.637h2.47a3.845 3.845 0 013.846 3.846v10.613a3.846 3.846 0 01-3.846 3.846h-2.47z" fill="url(#paint6_linear)"/><path d="M4 45.905V27.672c0-1.157.938-2.095 2.095-2.095a3.262 3.262 0 013.262 3.262v15.899A3.262 3.262 0 016.095 48 2.095 2.095 0 014 45.905z" fill="url(#paint7_linear)"/></g><defs><linearGradient id="paint0_linear" x1="26.671" y1="38.344" x2="42.928" y2="38.344" gradientUnits="userSpaceOnUse"><stop stop-color="#FFC2B5"/><stop offset=".244" stop-color="#FFBBB3"/><stop offset=".61" stop-color="#FFA6AF"/><stop offset="1" stop-color="#FF89A8"/></linearGradient><linearGradient id="paint1_linear" x1="29.838" y1="39.41" x2="47.759" y2="39.41" gradientUnits="userSpaceOnUse"><stop stop-color="#FFC2B5"/><stop offset=".244" stop-color="#FFBBB3"/><stop offset=".61" stop-color="#FFA6AF"/><stop offset="1" stop-color="#FF89A8"/></linearGradient><linearGradient id="paint2_linear" x1="8.455" y1="40.272" x2="54.323" y2="40.272" gradientUnits="userSpaceOnUse"><stop stop-color="#FFDCBD"/><stop offset=".003" stop-color="#FFDCBD"/><stop offset="1" stop-color="#FFA9B1"/></linearGradient><linearGradient id="paint3_linear" x1="16.206" y1="19.172" x2="35.986" y2="19.172" gradientUnits="userSpaceOnUse"><stop stop-color="#FFF9DF"/><stop offset=".593" stop-color="#FFE177"/><stop offset="1" stop-color="#FEB137"/></linearGradient><linearGradient id="paint4_linear" x1="23.449" y1="26.212" x2="38.998" y2="26.212" gradientUnits="userSpaceOnUse"><stop stop-color="#FFE177"/><stop offset="1" stop-color="#FEB137"/></linearGradient><linearGradient id="paint5_linear" x1="9.992" y1="34.909" x2="36.571" y2="34.909" gradientUnits="userSpaceOnUse"><stop stop-color="#FFDCBD"/><stop offset=".003" stop-color="#FFDCBD"/><stop offset="1" stop-color="#FFA9B1"/></linearGradient><linearGradient id="paint6_linear" x1="4.576" y1="36.788" x2="11.525" y2="36.788" gradientUnits="userSpaceOnUse"><stop stop-color="#CDBFBA"/><stop offset=".179" stop-color="#766E6E"/><stop offset="1" stop-color="#515151"/></linearGradient><linearGradient id="paint7_linear" x1="2.654" y1="36.789" x2="10.586" y2="36.789" gradientUnits="userSpaceOnUse"><stop stop-color="#A2E62E"/><stop offset=".754" stop-color="#09A76D"/><stop offset="1" stop-color="#017B4E"/></linearGradient><filter id="filter0_d" x="0" y="0" width="56" height="56" filterUnits="userSpaceOnUse" color-interpolation-filters="sRGB"><feFlood flood-opacity="0" result="BackgroundImageFix"/><feColorMatrix in="SourceAlpha" values="0 0 0 0 0 0 0 0 0 0 0 0 0 0 0 0 0 0 127 0"/><feOffset dy="4"/><feGaussianBlur stdDeviation="2"/><feColorMatrix values="0 0 0 0 0 0 0 0 0 0 0 0 0 0 0 0 0 0 0.25 0"/><feBlend in2="BackgroundImageFix" result="effect1_dropShadow"/><feBlend in="SourceGraphic" in2="effect1_dropShadow" result="shape"/></filter></defs></svg>