<svg width="30" height="29" fill="none" xmlns="http://www.w3.org/2000/svg"><path d="M.923 6.37v16.176c0 3.175 2.616 5.75 5.844 5.75h16.437c3.228 0 5.844-2.575 5.844-5.75V6.37c0-3.176-2.616-5.75-5.844-5.75H6.767C3.539.62.923 3.194.923 6.37zM17.965 22.3c-6.938 2.355-13.342-3.947-10.949-10.773a8.006 8.006 0 014.99-4.91c6.937-2.356 13.342 3.947 10.948 10.773-.806 2.3-2.651 4.116-4.99 4.91zm6.78-16.21c-.11.568-.59.9-1.084.9a1.117 1.117 0 01-.9-.463 1.069 1.069 0 01-.044-1.15c.146-.249.381-.427.663-.5.282-.076.576-.037.83.107a1.079 1.079 0 01.534 1.106z" fill="#fff" fill-opacity=".99"/><path d="M14.985 7.735c-3.767 0-6.832 3.016-6.832 6.723 0 3.708 3.065 6.723 6.832 6.723 3.768 0 6.833-3.015 6.833-6.723 0-3.707-3.065-6.723-6.833-6.723z" fill="#fff" fill-opacity=".99"/></svg>