<svg width="16" height="16" viewBox="0 0 16 16" fill="none" xmlns="http://www.w3.org/2000/svg">
<mask id="mask0" mask-type="alpha" maskUnits="userSpaceOnUse" x="0" y="0" width="16" height="16">
<rect width="16" height="16" fill="#C4C4C4"/>
</mask>
<g mask="url(#mask0)">
<path d="M13.1134 2.88657C11.8968 1.66991 10.2791 0.999932 8.55855 1C8.27661 1 8.04816 1.22852 8.04816 1.5104C8.04816 1.79227 8.27668 2.02079 8.55855 2.02079C10.0065 2.02073 11.3677 2.58455 12.3916 3.6084C13.4155 4.63226 13.9793 5.99359 13.9792 7.44156C13.9792 7.72343 14.2077 7.95195 14.4896 7.95195C14.7715 7.95195 15 7.72343 15 7.44162C15.0001 5.7209 14.3301 4.10322 13.1134 2.88657Z" fill="white"/>
<path d="M11.0138 7.44183C11.0138 7.72371 11.2424 7.95223 11.5243 7.95216C11.8062 7.95216 12.0346 7.72364 12.0346 7.44176C12.0345 5.52539 10.4751 3.96609 8.55862 3.96582C8.55855 3.96582 8.55862 3.96582 8.55855 3.96582C8.27668 3.96582 8.04822 4.19427 8.04816 4.47615C8.04816 4.75803 8.27661 4.98655 8.55849 4.98662C9.91226 4.98682 11.0137 6.08819 11.0138 7.44183Z" fill="white"/>
<path d="M9.88439 10.0439C9.10641 10.0037 8.71007 10.5822 8.51999 10.8602C8.36082 11.0928 8.42043 11.4105 8.65311 11.5696C8.88578 11.7288 9.20338 11.6692 9.36256 11.4365C9.58713 11.1082 9.68887 11.0565 9.82688 11.063C10.2686 11.115 12.0084 12.3899 12.1826 12.7885C12.2263 12.9059 12.2247 13.021 12.1778 13.161C11.9951 13.7031 11.6928 14.0841 11.3032 14.2626C10.9332 14.4323 10.4794 14.4169 9.99144 14.2183C8.16918 13.4756 6.57715 12.4391 5.25964 11.1375C5.2591 11.1369 5.25855 11.1365 5.25808 11.1359C3.95922 9.81971 2.92461 8.22972 2.1831 6.41026C1.98445 5.92184 1.96907 5.46807 2.13873 5.09806C2.3173 4.70853 2.69826 4.40617 3.2399 4.22372C3.38036 4.17662 3.49523 4.17513 3.61153 4.21841C4.01162 4.39324 5.28645 6.13294 5.3379 6.56971C5.34525 6.71289 5.29319 6.81456 4.96511 7.03873C4.73237 7.1977 4.67255 7.5153 4.83159 7.74804C4.99056 7.98079 5.3081 8.04054 5.54091 7.88157C5.81897 7.6917 6.39742 7.29645 6.35727 6.51581C6.31303 5.7004 4.72685 3.54101 3.96895 3.26233C3.63188 3.13671 3.27733 3.13453 2.91474 3.25621C2.09892 3.53094 1.50972 4.02078 1.21083 4.67273C0.920922 5.30521 0.93011 6.03903 1.23771 6.79523C2.03128 8.74237 3.14156 10.4461 4.53767 11.8592C4.54107 11.8627 4.54454 11.8661 4.54808 11.8694C5.96018 13.2629 7.66191 14.3712 9.60646 15.1638C9.99586 15.3221 10.3793 15.4014 10.7461 15.4014C11.0914 15.4014 11.422 15.3312 11.7286 15.1906C12.3806 14.8918 12.8704 14.3026 13.1454 13.4863C13.2668 13.1244 13.2648 12.7699 13.1401 12.4344C12.8605 11.6745 10.7011 10.0883 9.88439 10.0439Z" fill="white"/>
</g>
</svg>
