<svg width="43" height="49" fill="none" xmlns="http://www.w3.org/2000/svg"><path d="M13.353 1.027c-.29.048-.363.382-.363.543v.181h1.993v-.18c0-.339-.282-.504-.423-.544-.282-.02-.918-.049-1.207 0z" fill="#fff"/><path fill-rule="evenodd" clip-rule="evenodd" d="M15.285 1.751H12.99l-1.147.906v.483h4.649v-.483l-1.207-.906zm-2.959.906l.664-.604h2.295l.604.604v.302h-3.563v-.302zM12.206 3.14l-.483.604v.302h.362v.301h-.363v.423H16.372v-.302l-.483-.302h.483v-.422l-.665-.604H12.75l2.656.06.302.423h-3.38l.422-.483h-.543zm3.26.906h-2.959l-.18.422h3.26l-.121-.422z" fill="#fff"/><path fill-rule="evenodd" clip-rule="evenodd" d="M12.749 4.77v.725L11.36 6.944v.362h.725l-.725.724v.363h.483l-.724.543v.362h5.494v-.362l-.724-.543h.724V8.03l-.604-.724h.604v-.362l-1.328-1.45V4.77h-.423v.906H12.99V4.77h-.241zm2.355 1.147H12.99l-1.026.845v.302h4.045v-.302l-.905-.845zm.362 1.389h-2.959l-.664.543v.302h4.046V7.85l-.423-.543zm0 1.087h-3.14l-.604.422v.242h4.167v-.242l-.423-.422z" fill="#fff"/><path d="M14.983 1.57c0-.338-.282-.503-.423-.543-.282-.02-.918-.049-1.207 0-.29.048-.363.382-.363.543v.181m1.993-.18v.18m0-.18v.18m0 0h.302l1.207.906v.483h-.785m-.724-1.389H12.99m0 0l-1.147.906v.483h.363m0 0l-.483.604v.302h.362v.301h-.363v.423h1.027m-.543-1.63h.543m2.958 0l.665.604v.422h-.483l.483.302v.302h-1.087m.422-1.63H12.75m0 0l-.423.483h3.381l-.302-.423-2.656-.06zm0 1.63v.725L11.36 6.944v.362h.725l-.725.724v.363h.483l-.724.543v.362h5.494v-.362l-.724-.543h.724V8.03l-.604-.724h.604v-.362l-1.328-1.45V4.77m-2.536 0h.241m2.295 0h-.423m-1.872 0v.906h1.872V4.77m-1.872 0h1.872m-2.355-.724h2.959l.12.422h-3.26l.181-.422zm.483-1.993l-.664.604v.302h3.563v-.302l-.604-.604H12.99zm0 3.864h2.114l.905.845v.302h-4.045v-.302l1.026-.845zm-.483 1.389h2.959l.423.543v.302h-4.046V7.85l.664-.543zm-.18 1.087h3.139l.423.422v.242h-4.166v-.242l.603-.422z" stroke="#fff" stroke-width=".121"/><path d="M20.84 1.027c-.29.048-.363.382-.363.543v.181h1.993v-.18c0-.339-.282-.504-.423-.544-.282-.02-.918-.049-1.208 0z" fill="#fff"/><path fill-rule="evenodd" clip-rule="evenodd" d="M22.771 1.751h-2.294l-1.147.906v.483h4.649v-.483l-1.207-.906zm-2.958.906l.664-.604h2.294l.604.604v.302h-3.562v-.302zM19.692 3.14l-.483.604v.302h.363v.301h-.363v.423h4.649v-.302l-.483-.302h.483v-.422l-.664-.604h-2.958l2.656.06.302.423h-3.381l.423-.483h-.544zm3.26.906h-2.958l-.181.422h3.26l-.12-.422z" fill="#fff"/><path fill-rule="evenodd" clip-rule="evenodd" d="M20.236 4.77v.725l-1.389 1.449v.362h.724l-.724.724v.363h.483l-.724.543v.362H24.1v-.362l-.725-.543h.725V8.03l-.604-.724h.604v-.362l-1.329-1.45V4.77h-.422v.906h-1.872V4.77h-.241zm2.354 1.147h-2.113l-1.026.845v.302h4.045v-.302l-.906-.845zm.363 1.389h-2.959l-.664.543v.302h4.045V7.85l-.422-.543zm0 1.087h-3.14l-.604.422v.242h4.166v-.242l-.422-.422z" fill="#fff"/><path d="M22.47 1.57c0-.338-.282-.503-.423-.543-.282-.02-.918-.049-1.208 0-.29.048-.362.382-.362.543v.181m1.993-.18v.18m0-.18v.18m0 0h.302l1.207.906v.483h-.785M22.47 1.75h-1.993m0 0l-1.147.906v.483h.362m0 0l-.483.604v.302h.363v.301h-.363v.423h1.027m-.544-1.63h.544m2.958 0l.664.604v.422h-.483l.483.302v.302h-1.087m.423-1.63h-2.958m0 0l-.423.483h3.381l-.302-.423-2.656-.06zm0 1.63v.725l-1.389 1.449v.362h.724l-.724.724v.363h.483l-.724.543v.362H24.1v-.362l-.725-.543h.725V8.03l-.604-.724h.604v-.362l-1.329-1.45V4.77m-2.535 0h.241m2.294 0h-.422m-1.872 0v.906h1.872V4.77m-1.872 0h1.872m-2.355-.724h2.959l.12.422h-3.26l.181-.422zm.483-1.993l-.664.604v.302h3.562v-.302l-.604-.604h-2.294zm0 3.864h2.113l.906.845v.302h-4.045v-.302l1.026-.845zm-.483 1.389h2.959l.422.543v.302H19.33V7.85l.664-.543zm-.181 1.087h3.14l.422.422v.242H19.21v-.242l.604-.422z" stroke="#fff" stroke-width=".121"/><path d="M28.085 1.027c-.29.048-.363.382-.363.543v.181h1.993v-.18c0-.339-.282-.504-.423-.544-.282-.02-.918-.049-1.207 0z" fill="#fff"/><path fill-rule="evenodd" clip-rule="evenodd" d="M30.017 1.751h-2.295l-1.147.906v.483h4.649v-.483l-1.207-.906zm-2.959.906l.664-.604h2.295l.604.604v.302h-3.563v-.302zM26.938 3.14l-.483.604v.302h.362v.301h-.363v.423H31.104v-.302l-.483-.302h.483v-.422l-.665-.604h-2.958l2.656.06.302.423h-3.38l.422-.483h-.544zm3.26.906h-2.959l-.18.422h3.26l-.121-.422z" fill="#fff"/><path fill-rule="evenodd" clip-rule="evenodd" d="M27.48 4.77v.725l-1.388 1.449v.362h.725l-.725.724v.363h.483l-.724.543v.362h5.494v-.362l-.724-.543h.724V8.03l-.604-.724h.604v-.362l-1.328-1.45V4.77h-.423v.906h-1.872V4.77h-.241zm2.356 1.147h-2.114l-1.026.845v.302h4.045v-.302l-.905-.845zm.362 1.389h-2.959l-.664.543v.302h4.046V7.85l-.423-.543zm0 1.087h-3.14l-.604.422v.242h4.166v-.242l-.422-.422z" fill="#fff"/><path d="M29.715 1.57c0-.338-.282-.503-.423-.543-.282-.02-.918-.049-1.207 0-.29.048-.363.382-.363.543v.181m1.993-.18v.18m0-.18v.18m0 0h.302l1.207.906v.483h-.785m-.724-1.389h-1.993m0 0l-1.147.906v.483h.363m0 0l-.483.604v.302h.362v.301h-.363v.423h1.027m-.544-1.63h.544m2.958 0l.665.604v.422h-.483l.483.302v.302h-1.087m.422-1.63h-2.958m0 0l-.423.483h3.381l-.302-.423-2.656-.06zm0 1.63v.725l-1.389 1.449v.362h.725l-.725.724v.363h.483l-.724.543v.362h5.494v-.362l-.724-.543h.724V8.03l-.604-.724h.604v-.362l-1.328-1.45V4.77m-2.536 0h.241m2.295 0h-.423m-1.872 0v.906h1.872V4.77m-1.872 0h1.872m-2.355-.724h2.959l.12.422h-3.26l.181-.422zm.483-1.993l-.664.604v.302h3.563v-.302l-.604-.604h-2.295zm0 3.864h2.114l.905.845v.302h-4.045v-.302l1.026-.845zm-.483 1.389h2.959l.422.543v.302h-4.045V7.85l.664-.543zm-.18 1.087h3.139l.422.422v.242h-4.166v-.242l.604-.422z" stroke="#fff" stroke-width=".121"/><path d="M12.568 9.42v3.622h.422V9.419h-.422zM14.62 9.42v3.622h.423V9.419h-.422z" fill="#fff" stroke="#fff" stroke-width=".121"/><path d="M12.206 12.68h.301v.301h2.536v-.302h.725v.302h.483v.544h-.483v-.302H14.5v.302h-.906v-.302h-1.388v.302h-.363v-.544h.363v-.302zM19.934 9.42v3.622h.422V9.419h-.422zM21.987 9.42v3.622h.422V9.419h-.422z" fill="#fff" stroke="#fff" stroke-width=".121"/><path d="M19.572 12.68h.301v.301h2.536v-.302h.725v.302h.483v.544h-.483v-.302h-1.268v.302h-.906v-.302h-1.389v.302h-.362v-.544h.363v-.302zM27.179 9.42v3.622h.423V9.419h-.423zM29.232 9.42v3.622h.422V9.419h-.422z" fill="#fff" stroke="#fff" stroke-width=".121"/><path d="M26.817 12.68h.302v.301h2.535v-.302h.725v.302h.483v.544h-.483v-.302h-1.268v.302h-.906v-.302h-1.388v.302h-.363v-.544h.363v-.302z" fill="#fff" stroke="#fff" stroke-width=".121"/><path fill-rule="evenodd" clip-rule="evenodd" d="M9.549 13.585v-.241h-.302v-.302h-.966v.543c-.12.362-.157 1.16.664 1.45l.258-.122c-.012-.09.03-.18.225-.18l.12-.423-.422-.06v-.363l.423-.302zm-1.026.664a.777.777 0 01.06-.483c.04-.02.133-.048.181 0 .048.049.02.383 0 .544l.242.12-.06.302c-.041.04-.146.085-.242-.06-.121-.181-.121-.181-.181-.423z" fill="#fff"/><path d="M10.274 16v2.536h.483v-3.743l-.483-.06V16z" fill="#fff"/><path d="M8.945 16c-.02.302.12.858.845.664l.484-.664v-.543c-.161.06-.484.253-.484.543 0 .29-.362.12-.543 0v-.966a.327.327 0 01-.044-.12l-.258.12V16zM9.428 14.732h.845l.484.06h2.475v-.482H9.549l-.12.422z" fill="#fff"/><path fill-rule="evenodd" clip-rule="evenodd" d="M19.088 13.042c-.29 0-.603.362-.724.543l-.06.362v.604l-.06.362c0 .302.603.544.845.544.193 0 .442-.282.543-.423h3.08c-.05.193.26.403.422.483.14.02.447.036.543-.06a.465.465 0 00.12-.302l-.301-.543-.06-.483.483-.242v-.302h-4.287c-.06-.181-.254-.543-.544-.543zm-.543 1.75c.048.194.262.242.362.242.02-.06.06-.205.06-.302 0-.12-.18-.18-.18-.302 0-.12-.302.121-.242.363zm.604-.24v-.423l3.381-.06v.482h-3.381zm3.985-.484h-.302v.845c.06.08.205.242.302.242.12 0 .241 0 .302-.12.06-.122-.302-.242-.302-.303v-.664z" fill="#fff"/><path d="M11.783 13.585H9.549l-.423.302h5.072l4.106.06.06-.362h-6.581z" fill="#fff"/><path fill-rule="evenodd" clip-rule="evenodd" d="M13.232 13.887V14.793h.06c.242.362.604.483.846.483.193 0 .281-.242.302-.363h3.803l.06-.362-3.864-.12c-.12-.04-.374-.17-.422-.363l.181-.181h-.966zm.543.906c-.193 0-.241-.161-.241-.242.04-.08.145-.241.241-.241.121 0 .121.12.121.241 0 .12.12.242-.12.242z" fill="#fff"/><path d="M26.454 13.887H23.92l-.483.242 3.079.06-.06-.302zM23.798 15.155h2.838l.06-.543h-3.2l.302.543zM35.934 17.45v-2.174l-.363.18.121 1.691h-.422c.04-.241.096-.76 0-.905-.121-.181-.302-.604-.423-.483-.097.096-.161.362-.181.483-.06.12-.205.362-.302.362h-1.026v-1.147l-.302.18v1.088c.193.241.805.382 1.086.422v1.932h.242v-1.932c.338-.434.463-.463.483-.422v.724h1.087zM30.198 13.887h-2.174l-.362.423h2.536v-.423zM28.024 15.155c.717-.057 2.086-.135 2.174-.024v-.399H27.54l.483.423z" fill="#fff"/><path fill-rule="evenodd" clip-rule="evenodd" d="M26.454 13.223c-.338.048-.14.463 0 .664l.06.302.182.422-.06.544h.06c.06.181.362.423.664.423.242 0 .544-.282.664-.423l-.483-.423v-.302l.121-.12.362-.423c-.338-.435-.704-.382-.845-.302l-.724-.362zm.53 1.57c-.145-.145.06-.544.181-.725.04 0 .014-.036.014.06 0 .121.12.182 0 .302-.12.121.06.363.181.363.12 0 0 .12 0 .241 0 .12 0 .242-.302.12-.302-.12.107-.18-.074-.361zM30.68 13.585c-.386 0-.482.201-.482.302v1.244c.006.007.006.015 0 .024-.097.145.16.342.302.423.16.02.519.048.664 0 .145-.049.221-.222.241-.302h1.027c.29 0 .523.241.604.362l.301-.181-.18-.423h-.242c.02-.1.096-.302.241-.302.181 0-.241-.422-.12-.422.096 0 .04-.202 0-.302l-.604-.121h-1.208c-.02-.1-.157-.302-.543-.302zm.122.543c0-.144-.08-.1-.121-.06-.06.08-.193.242-.242.242-.048 0-.02.281 0 .422l.06.302c.02.06.085.193.182.242.12.06.241 0 .241-.242 0-.241-.241-.12-.241-.241s-.181-.242-.06-.363c.12-.12.18-.12.18-.301zm1.871.182h-1.63c-.12 0-.06.241-.12.301-.049.049.06.141.12.182.584 0 1.775-.012 1.872-.06.096-.05-.12-.303-.242-.423z" fill="#fff"/><path fill-rule="evenodd" clip-rule="evenodd" d="M32.432 13.404v.483l.604.12c.1.061.301.206.301.303v.422l-.18.302.18.423h2.234l.363-.181h-.785v-.302h.785c.241-.435.1-.825 0-.966h-1.087v-.423h-.725v.302h-.785c-.29-.531-.724-.543-.905-.483zm1.69.785l-.483.12-.12.484.241.18.181-.24 1.751-.122v-.422h-1.57z" fill="#fff"/><path d="M9.549 13.585H18.364m-8.815 0v-.241h-.302v-.302h-.966v.543c-.12.362-.157 1.16.664 1.45m.604-1.45l-.423.302m-.18 1.147V16c-.02.302.12.858.844.664l.484-.664m-1.329-.966l.258-.12M10.273 16v2.536h.484v-3.743M10.274 16v-.543m.483-.664l-.483-.06m.483.06h2.475m-2.958.664v-.724m0 .724c-.161.06-.484.253-.484.543 0 .29-.362.12-.543 0v-.966a.327.327 0 01-.044-.12m.225-.182h.845m-.845 0l.12-.422m-.12.422c-.195 0-.237.091-.225.181m.225-.18h.845m-1.147-.846v.362l.423.06m-.423-.422h4.106m-3.683.423h3.683m0 0v-.423m0 .423v.483m0-.906h.966m4.166-.302c.12-.181.435-.543.724-.543.29 0 .483.362.544.543h4.287v.302m-5.555-.302l-.06.362m5.615-.06h2.535m-2.535 0l-.483.242m3.018-.242c-.14-.201-.338-.616 0-.664l.725.362c.14-.08.507-.133.845.302m-1.57 0l.06.302m1.51-.302h2.174m-2.174 0l-.362.423m2.536-.423c0-.1.096-.302.483-.302.386 0 .523.201.543.302h1.208m-2.234 0v.423m2.234-.423v-.483c.181-.06.616-.048.905.483h.785v-.302h.725v.423h1.087c.1.14.241.531 0 .966h-.785v.302h.785m-3.502-1.389l.604.12m2.898 1.269v2.173h-1.087v-.724c-.02-.04-.145-.012-.483.422v1.932h-.242v-1.932c-.281-.04-.893-.18-1.086-.422v-1.087m2.898-.362l-.363.18m-2.535.182c-.08-.12-.314-.362-.604-.362m.604.362l.301-.181m-.905-.181h-1.027m1.027 0h-1.027m0 0c-.02.08-.096.253-.241.302-.145.048-.503.02-.664 0-.141-.081-.399-.278-.302-.423m0 0v-.024m0 .024c.006-.01.006-.017 0-.024m-2.174.024c-.12.14-.422.423-.664.423-.302 0-.604-.242-.664-.423h-.06m1.388 0l-.483-.423m.483.423c.717-.057 2.086-.135 2.174-.024m-3.562.024h-2.838m2.838 0l.06-.543m-2.898.543c0 .06-.024.205-.12.302-.097.096-.403.08-.544.06-.161-.08-.471-.29-.423-.483h-3.08c-.1.141-.35.423-.543.423-.241 0-.845-.242-.845-.544m5.555.242l-.302-.543m-5.253.301H14.44m3.803 0l.06-.362m-3.864.362c-.02.121-.108.363-.301.363-.242 0-.604-.121-.846-.483h-.06m1.208.12v-.362m-.242-.664l-.181.181c.048.193.302.322.423.362l3.864.121m-4.106-.664l4.106.06m0 0v.604m4.83-.483h-.302v.845c.06.08.205.242.302.242.12 0 .241 0 .302-.12.06-.122-.302-.242-.302-.303m0-.664v.664m0-.664v.664m.302-.603l.06.482m-.06-.482l3.079.06m-3.019.422h3.2m0 0l-.181-.422m1.147.12l-.12.121v.302m.12-.422h2.536m-2.657.422h2.657m0 0v-.422m0 .422v.399m2.838-1.123c.1.06.301.205.301.302m-.301-.302c.04.1.096.302 0 .302-.121 0 .301.422.12.422-.145 0-.221.202-.241.302h.241m.181-.724v.422m0-.422v.422m0 0l-.18.302m0 0l.18.423m0 0h2.234m-2.233 0v1.147m2.233-1.147l.121 1.69h-.422c.04-.241.096-.76 0-.905-.121-.181-.302-.604-.423-.483-.097.096-.161.362-.181.483-.06.12-.205.362-.302.362m0 0h-1.026m1.026 0h-1.026M8.582 13.766a.777.777 0 00-.06.483c.06.242.06.242.18.423.097.145.202.1.242.06l.06-.302-.241-.12c.02-.161.048-.495 0-.544-.048-.048-.14-.02-.181 0zm4.95.785c0 .08.05.242.242.242.242 0 .121-.121.121-.242 0-.12 0-.241-.12-.241-.097 0-.202.16-.242.241zm5.374.483c-.1 0-.314-.048-.362-.241-.06-.242.242-.483.242-.363 0 .121.18.181.18.302 0 .097-.04.242-.06.302zm.242-.905v.422h3.381v-.483l-3.381.06zm8.016-.06c-.12.18-.326.579-.18.724.18.18-.229.241.073.362.302.12.302 0 .302-.12 0-.122.12-.242 0-.242s-.302-.242-.181-.363c.12-.12 0-.18 0-.301 0-.097.027-.06-.014-.06zm3.516 0c.04-.041.12-.085.12.06 0 .18-.06.18-.18.301-.121.121.06.242.06.363 0 .12.241 0 .241.241 0 .242-.12.302-.241.242-.097-.049-.161-.181-.181-.242l-.06-.302c-.02-.14-.049-.422 0-.422.048 0 .18-.161.24-.242zm.362.24h1.63c.121.121.338.375.242.423-.097.049-1.288.06-1.872.06-.06-.04-.169-.132-.12-.18.06-.06 0-.302.12-.302zm2.596 0l.483-.12h1.57v.422l-1.75.121-.182.242-.241-.181.12-.483z" stroke="#fff" stroke-width=".121"/><path d="M3.45 43.11h35.502l.423-.423-35.985.06.06.362zM2.847 19.019H38.35l.362-.423H3.27l-.423.423z" fill="#fff" stroke="#fff" stroke-width=".121"/><path fill-rule="evenodd" clip-rule="evenodd" d="M3.27 18.596c-.685.161-2.113.544-2.355.846-.362.302-.845.905-.845 1.207 0 .306.342 13.243.483 19.683.12.704.857 2.246 2.837 2.777h.665c-.665-.382-1.945-1.473-1.751-2.777l-.966-19.26c-.06-.342.241-1.316 1.932-2.476zM.372 20.65c.06-.422 1.207-1.51 1.81-1.63l-.663.664a3.35 3.35 0 00-.544.966l.785 19.683c0 .604.524 1.61.785 1.992-1.268-1.147-1.449-1.75-1.449-1.992L.372 20.65z" fill="#fff" stroke="#fff" stroke-width=".121"/><path fill-rule="evenodd" clip-rule="evenodd" d="M4.487 18.596c-.684.161-2.113.544-2.355.846-.362.302-.845.905-.845 1.207 0 .306.342 13.243.483 19.683.12.704.857 2.246 2.838 2.777h.664c-.664-.382-1.944-1.473-1.751-2.777l-.966-19.26c-.06-.342.241-1.316 1.932-2.476zM1.589 20.65c.06-.422 1.207-1.51 1.811-1.63l-.664.664a3.35 3.35 0 00-.544.966l.785 19.683c0 .604.524 1.61.785 1.992-1.268-1.147-1.449-1.75-1.449-1.992L1.59 20.65zM11.008 18.596c-.685.161-2.114.544-2.355.846-.362.302-.845.905-.845 1.207 0 .306.342 13.243.483 19.683.12.704.857 2.246 2.837 2.777h.664c-.664-.382-1.944-1.473-1.75-2.777l-.967-19.26c-.06-.342.242-1.316 1.933-2.476zM8.108 20.65c.06-.422 1.208-1.51 1.812-1.63l-.664.664a3.35 3.35 0 00-.544.966l.785 19.683c0 .604.523 1.61.785 1.992-1.268-1.147-1.449-1.75-1.449-1.992L8.109 20.65z" fill="#fff" stroke="#fff" stroke-width=".121"/><path fill-rule="evenodd" clip-rule="evenodd" d="M7.747 18.596c-.684.161-2.113.544-2.355.846-.362.302-.845.905-.845 1.207 0 .306.342 13.243.483 19.683.12.704.858 2.246 2.838 2.777h.664c-.664-.382-1.944-1.473-1.75-2.777l-.967-19.26c-.06-.342.242-1.316 1.932-2.476zM4.85 20.65c.06-.422 1.208-1.51 1.811-1.63l-.664.664a3.35 3.35 0 00-.543.966l.785 19.683c0 .604.523 1.61.785 1.992-1.268-1.147-1.45-1.75-1.45-1.992L4.85 20.65zM14.268 18.596c-.684.161-2.113.544-2.355.846-.362.302-.845.905-.845 1.207 0 .306.342 13.243.483 19.683.12.704.857 2.246 2.838 2.777h.664c-.664-.382-1.944-1.473-1.751-2.777l-.966-19.26c-.06-.342.241-1.316 1.932-2.476zM11.37 20.65c.06-.422 1.207-1.51 1.811-1.63l-.664.664a3.347 3.347 0 00-.543.966l.784 19.683c0 .604.524 1.61.785 1.992-1.268-1.147-1.449-1.75-1.449-1.992L11.37 20.65z" fill="#fff" stroke="#fff" stroke-width=".121"/><path fill-rule="evenodd" clip-rule="evenodd" d="M5.694 18.596c-.684.161-2.113.544-2.354.846-.363.302-.846.905-.846 1.207 0 .306.343 13.243.483 19.683.121.704.858 2.246 2.838 2.777h.664c-.664-.382-1.944-1.473-1.75-2.777l-.967-19.26c-.06-.342.242-1.316 1.932-2.476zM2.796 20.65c.06-.422 1.208-1.51 1.812-1.63l-.665.664a3.35 3.35 0 00-.543.966l.785 19.683c0 .604.523 1.61.785 1.992-1.268-1.147-1.45-1.75-1.45-1.992L2.797 20.65zM12.215 18.596c-.684.161-2.113.544-2.355.846-.362.302-.845.905-.845 1.207 0 .306.342 13.243.483 19.683.12.704.857 2.246 2.838 2.777H13c-.664-.382-1.944-1.473-1.75-2.777l-.967-19.26c-.06-.342.242-1.316 1.932-2.476zM9.317 20.65c.06-.422 1.207-1.51 1.811-1.63l-.664.664a3.348 3.348 0 00-.543.966l.785 19.683c0 .604.523 1.61.785 1.992-1.268-1.147-1.45-1.75-1.45-1.992L9.317 20.65z" fill="#fff" stroke="#fff" stroke-width=".121"/><path fill-rule="evenodd" clip-rule="evenodd" d="M8.955 18.596c-.685.161-2.113.544-2.355.846-.362.302-.845.905-.845 1.207 0 .306.342 13.243.483 19.683.12.704.857 2.246 2.837 2.777h.665c-.665-.382-1.945-1.473-1.751-2.777l-.966-19.26c-.06-.342.241-1.316 1.932-2.476zM6.057 20.65c.06-.422 1.207-1.51 1.81-1.63l-.663.664a3.35 3.35 0 00-.544.966l.785 19.683c0 .604.524 1.61.785 1.992-1.268-1.147-1.449-1.75-1.449-1.992L6.057 20.65zM15.475 18.596c-.684.161-2.113.544-2.354.846-.363.302-.846.905-.846 1.207 0 .306.343 13.243.483 19.683.121.704.858 2.246 2.838 2.777h.664c-.664-.382-1.944-1.473-1.75-2.777l-.967-19.26c-.06-.342.242-1.316 1.932-2.476zm-2.898 2.053c.06-.422 1.208-1.51 1.812-1.63l-.664.664a3.349 3.349 0 00-.544.966l.785 19.683c0 .604.523 1.61.785 1.992-1.268-1.147-1.45-1.75-1.45-1.992l-.724-19.683z" fill="#fff" stroke="#fff" stroke-width=".121"/><path fill-rule="evenodd" clip-rule="evenodd" d="M6.781 18.596c-.684.161-2.113.544-2.355.846-.362.302-.845.905-.845 1.207 0 .306.342 13.243.483 19.683.12.704.858 2.246 2.838 2.777h.664c-.664-.382-1.944-1.473-1.75-2.777l-.967-19.26c-.06-.342.242-1.316 1.932-2.476zM3.883 20.65c.06-.422 1.208-1.51 1.811-1.63l-.664.664a3.35 3.35 0 00-.543.966l.785 19.683c0 .604.523 1.61.785 1.992-1.268-1.147-1.45-1.75-1.45-1.992L3.884 20.65zM13.302 18.596c-.684.161-2.113.544-2.355.846-.362.302-.845.905-.845 1.207 0 .306.342 13.243.483 19.683.12.704.857 2.246 2.838 2.777h.664c-.664-.382-1.944-1.473-1.751-2.777l-.966-19.26c-.06-.342.241-1.316 1.932-2.476zm-2.898 2.053c.06-.422 1.207-1.51 1.811-1.63l-.664.664a3.351 3.351 0 00-.543.966l.784 19.683c0 .604.524 1.61.785 1.992-1.268-1.147-1.449-1.75-1.449-1.992l-.724-19.683z" fill="#fff" stroke="#fff" stroke-width=".121"/><path fill-rule="evenodd" clip-rule="evenodd" d="M10.041 18.596c-.684.161-2.113.544-2.354.846-.362.302-.845.905-.845 1.207 0 .306.342 13.243.483 19.683.12.704.857 2.246 2.837 2.777h.664c-.664-.382-1.944-1.473-1.75-2.777l-.967-19.26c-.06-.342.242-1.316 1.932-2.476zM7.143 20.65c.06-.422 1.208-1.51 1.812-1.63l-.664.664a3.35 3.35 0 00-.544.966l.785 19.683c0 .604.523 1.61.785 1.992-1.268-1.147-1.45-1.75-1.45-1.992L7.144 20.65zM16.562 18.596c-.684.161-2.113.544-2.355.846-.362.302-.845.905-.845 1.207 0 .306.342 13.243.483 19.683.121.704.858 2.246 2.838 2.777h.664c-.664-.382-1.944-1.473-1.75-2.777l-.967-19.26c-.06-.342.242-1.316 1.932-2.476zm-2.898 2.053c.06-.422 1.208-1.51 1.811-1.63l-.664.664a3.349 3.349 0 00-.543.966l.785 19.683c0 .604.523 1.61.785 1.992-1.268-1.147-1.45-1.75-1.45-1.992l-.724-19.683z" fill="#fff" stroke="#fff" stroke-width=".121"/><path fill-rule="evenodd" clip-rule="evenodd" d="M17.89 18.596c-.684.161-2.113.544-2.354.846-.362.302-.845.905-.845 1.207 0 .306.342 13.243.482 19.683.121.704.858 2.246 2.838 2.777h.664c-.664-.382-1.944-1.473-1.75-2.777l-.967-19.26c-.06-.342.242-1.316 1.932-2.476zm-2.898 2.053c.06-.422 1.208-1.51 1.812-1.63l-.664.664a3.349 3.349 0 00-.544.966l.785 19.683c0 .604.523 1.61.785 1.992-1.268-1.147-1.45-1.75-1.45-1.992l-.724-19.683z" fill="#fff" stroke="#fff" stroke-width=".121"/><path fill-rule="evenodd" clip-rule="evenodd" d="M18.977 18.596c-.684.161-2.113.544-2.354.846-.363.302-.846.905-.846 1.207 0 .306.342 13.243.483 19.683.121.704.858 2.246 2.838 2.777h.664c-.664-.382-1.944-1.473-1.75-2.777l-.967-19.26c-.06-.342.242-1.316 1.932-2.476zM16.08 20.65c.06-.422 1.208-1.51 1.811-1.63l-.664.664a3.349 3.349 0 00-.543.966l.785 19.683c0 .604.523 1.61.785 1.992-1.268-1.147-1.45-1.75-1.45-1.992L16.08 20.65z" fill="#fff" stroke="#fff" stroke-width=".121"/><path fill-rule="evenodd" clip-rule="evenodd" d="M20.306 18.596c-.685.161-2.114.544-2.355.846-.362.302-.845.905-.845 1.207 0 .306.342 13.243.483 19.683.12.704.857 2.246 2.837 2.777h.665c-.665-.382-1.945-1.473-1.751-2.777l-.966-19.26c-.06-.342.241-1.316 1.932-2.476zm-2.899 2.053c.06-.422 1.208-1.51 1.812-1.63l-.664.664a3.349 3.349 0 00-.544.966l.785 19.683c0 .604.523 1.61.785 1.992-1.268-1.147-1.449-1.75-1.449-1.992l-.725-19.683z" fill="#fff" stroke="#fff" stroke-width=".121"/><path fill-rule="evenodd" clip-rule="evenodd" d="M21.272 18.596c-.685.161-2.114.544-2.355.846-.362.302-.845.905-.845 1.207 0 .306.342 13.243.483 19.683.12.704.857 2.246 2.837 2.777h.665c-.665-.382-1.945-1.473-1.751-2.777l-.966-19.26c-.06-.342.241-1.316 1.932-2.476zm-2.898 2.053c.06-.422 1.207-1.51 1.81-1.63l-.663.664a3.349 3.349 0 00-.544.966l.785 19.683c0 .604.523 1.61.785 1.992-1.268-1.147-1.449-1.75-1.449-1.992l-.724-19.683z" fill="#fff" stroke="#fff" stroke-width=".121"/><path fill-rule="evenodd" clip-rule="evenodd" d="M22.6 18.596c-.684.161-2.113.544-2.355.846-.362.302-.845.905-.845 1.207 0 .306.342 13.243.483 19.683.12.704.857 2.246 2.838 2.777h.664c-.664-.382-1.944-1.473-1.751-2.777l-.966-19.26c-.06-.342.241-1.316 1.932-2.476zm-2.898 2.053c.06-.422 1.207-1.51 1.811-1.63l-.664.664a3.349 3.349 0 00-.543.966l.784 19.683c0 .604.524 1.61.785 1.992-1.267-1.147-1.449-1.75-1.449-1.992l-.724-19.683z" fill="#fff" stroke="#fff" stroke-width=".121"/><path fill-rule="evenodd" clip-rule="evenodd" d="M23.687 18.596c-.685.161-2.114.544-2.355.846-.362.302-.845.905-.845 1.207 0 .306.342 13.243.483 19.683.12.704.857 2.246 2.838 2.777h.664c-.665-.382-1.945-1.473-1.751-2.777l-.966-19.26c-.06-.342.241-1.316 1.932-2.476zm-2.898 2.053c.06-.422 1.207-1.51 1.81-1.63l-.663.664a3.349 3.349 0 00-.544.966l.785 19.683c0 .604.524 1.61.785 1.992-1.268-1.147-1.449-1.75-1.449-1.992L20.79 20.65z" fill="#fff" stroke="#fff" stroke-width=".121"/><path fill-rule="evenodd" clip-rule="evenodd" d="M24.773 18.596c-.684.161-2.113.544-2.354.846-.363.302-.846.905-.846 1.207 0 .306.343 13.243.483 19.683.121.704.858 2.246 2.838 2.777h.664c-.664-.382-1.944-1.473-1.75-2.777l-.967-19.26c-.06-.342.242-1.316 1.932-2.476zm-2.898 2.053c.06-.422 1.208-1.51 1.812-1.63l-.664.664a3.349 3.349 0 00-.544.966l.785 19.683c0 .604.523 1.61.785 1.992-1.268-1.147-1.45-1.75-1.45-1.992l-.724-19.683z" fill="#fff" stroke="#fff" stroke-width=".121"/><path fill-rule="evenodd" clip-rule="evenodd" d="M25.86 18.596c-.684.161-2.113.544-2.354.846-.363.302-.846.905-.846 1.207 0 .306.342 13.243.483 19.683.121.704.858 2.246 2.838 2.777h.664c-.664-.382-1.944-1.473-1.75-2.777l-.967-19.26c-.06-.342.242-1.316 1.932-2.476zm-2.898 2.053c.06-.422 1.208-1.51 1.811-1.63l-.664.664a3.349 3.349 0 00-.543.966l.785 19.683c0 .604.523 1.61.785 1.992-1.268-1.147-1.45-1.75-1.45-1.992l-.724-19.683zM38.953 43.11c.684-.161 2.113-.544 2.354-.846.362-.302.846-.906.846-1.207 0-.306-.343-13.243-.483-19.683-.121-.705-.858-2.246-2.838-2.778h-.664c.664.383 1.944 1.474 1.75 2.778l.967 19.26c.06.342-.242 1.316-1.932 2.475zm2.898-2.053c-.06.422-1.208 1.51-1.812 1.63l.664-.664c.242-.302.443-.665.544-.966l-.785-19.683c0-.604-.523-1.61-.785-1.993 1.268 1.148 1.45 1.751 1.45 1.993l.724 19.683z" fill="#fff" stroke="#fff" stroke-width=".121"/><path fill-rule="evenodd" clip-rule="evenodd" d="M37.866 43.11c.684-.161 2.113-.544 2.355-.846.362-.302.845-.906.845-1.207 0-.306-.342-13.243-.483-19.683-.121-.705-.858-2.246-2.838-2.778h-.664c.664.383 1.944 1.474 1.75 2.778l.967 19.26c.06.342-.242 1.316-1.932 2.475zm2.898-2.053c-.06.422-1.208 1.51-1.811 1.63l.664-.664a3.35 3.35 0 00.543-.966l-.785-19.683c0-.604-.523-1.61-.785-1.993 1.268 1.148 1.45 1.751 1.45 1.993l.724 19.683z" fill="#fff" stroke="#fff" stroke-width=".121"/><path fill-rule="evenodd" clip-rule="evenodd" d="M36.658 43.11c.684-.161 2.113-.544 2.355-.846.362-.302.845-.906.845-1.207 0-.306-.342-13.243-.483-19.683-.12-.705-.857-2.246-2.837-2.778h-.665c.665.383 1.945 1.474 1.751 2.778l.966 19.26c.06.342-.241 1.316-1.932 2.475zm2.898-2.053c-.06.422-1.207 1.51-1.811 1.63l.664-.664c.242-.302.443-.665.544-.966l-.785-19.683c0-.604-.524-1.61-.785-1.993 1.268 1.148 1.449 1.751 1.449 1.993l.724 19.683z" fill="#fff" stroke="#fff" stroke-width=".121"/><path fill-rule="evenodd" clip-rule="evenodd" d="M35.45 43.11c.685-.161 2.114-.544 2.355-.846.363-.302.846-.906.846-1.207 0-.306-.343-13.243-.483-19.683-.121-.705-.858-2.246-2.838-2.778h-.664c.664.383 1.944 1.474 1.75 2.778l.967 19.26c.06.342-.242 1.316-1.932 2.475zm2.899-2.053c-.06.422-1.208 1.51-1.811 1.63l.664-.664a3.35 3.35 0 00.543-.966l-.785-19.683c0-.604-.523-1.61-.785-1.993 1.268 1.148 1.45 1.751 1.45 1.993l.724 19.683z" fill="#fff" stroke="#fff" stroke-width=".121"/><path fill-rule="evenodd" clip-rule="evenodd" d="M34.243 43.11c.684-.161 2.113-.544 2.355-.846.362-.302.845-.906.845-1.207 0-.306-.342-13.243-.483-19.683-.12-.705-.857-2.246-2.838-2.778h-.664c.664.383 1.944 1.474 1.751 2.778l.966 19.26c.06.342-.241 1.316-1.932 2.475zm2.898-2.053c-.06.422-1.207 1.51-1.811 1.63l.664-.664a3.35 3.35 0 00.544-.966l-.785-19.683c0-.604-.524-1.61-.785-1.993 1.268 1.148 1.449 1.751 1.449 1.993l.724 19.683z" fill="#fff" stroke="#fff" stroke-width=".121"/><path fill-rule="evenodd" clip-rule="evenodd" d="M33.156 43.11c.685-.161 2.114-.544 2.355-.846.362-.302.845-.906.845-1.207 0-.306-.342-13.243-.483-19.683-.12-.705-.857-2.246-2.837-2.778h-.665c.665.383 1.945 1.474 1.751 2.778l.966 19.26c.06.342-.241 1.316-1.932 2.475zm2.898-2.053c-.06.422-1.207 1.51-1.81 1.63l.663-.664a3.35 3.35 0 00.544-.966l-.785-19.683c0-.604-.523-1.61-.785-1.993 1.268 1.148 1.449 1.751 1.449 1.993l.724 19.683z" fill="#fff" stroke="#fff" stroke-width=".121"/><path fill-rule="evenodd" clip-rule="evenodd" d="M32.19 43.11c.685-.161 2.114-.544 2.355-.846.362-.302.845-.906.845-1.207 0-.306-.342-13.243-.483-19.683-.12-.705-.857-2.246-2.837-2.778h-.665c.665.383 1.945 1.474 1.751 2.778l.966 19.26c.06.342-.241 1.316-1.932 2.475zm2.898-2.053c-.06.422-1.207 1.51-1.81 1.63l.663-.664c.242-.302.443-.665.544-.966L33.7 21.374c0-.604-.524-1.61-.785-1.993 1.268 1.148 1.449 1.751 1.449 1.993l.724 19.683z" fill="#fff" stroke="#fff" stroke-width=".121"/><path fill-rule="evenodd" clip-rule="evenodd" d="M31.104 43.11c.684-.161 2.113-.544 2.354-.846.363-.302.846-.906.846-1.207 0-.306-.343-13.243-.483-19.683-.121-.705-.858-2.246-2.838-2.778h-.664c.664.383 1.944 1.474 1.75 2.778l.967 19.26c.06.342-.242 1.316-1.933 2.475zm2.898-2.053c-.06.422-1.208 1.51-1.812 1.63l.665-.664c.241-.302.442-.665.543-.966l-.785-19.683c0-.604-.523-1.61-.785-1.993 1.268 1.148 1.45 1.751 1.45 1.993l.724 19.683z" fill="#fff" stroke="#fff" stroke-width=".121"/><path fill-rule="evenodd" clip-rule="evenodd" d="M29.775 43.11c.684-.161 2.113-.544 2.355-.846.362-.302.845-.906.845-1.207 0-.306-.342-13.243-.483-19.683-.12-.705-.857-2.246-2.837-2.778h-.665c.665.383 1.945 1.474 1.751 2.778l.966 19.26c.06.342-.241 1.316-1.932 2.475zm2.898-2.053c-.06.422-1.207 1.51-1.811 1.63l.664-.664c.242-.302.443-.665.544-.966l-.785-19.683c0-.604-.524-1.61-.785-1.993 1.268 1.148 1.449 1.751 1.449 1.993l.724 19.683z" fill="#fff" stroke="#fff" stroke-width=".121"/><path fill-rule="evenodd" clip-rule="evenodd" d="M28.447 43.11c.684-.161 2.113-.544 2.355-.846.362-.302.845-.906.845-1.207 0-.306-.342-13.243-.483-19.683-.12-.705-.857-2.246-2.838-2.778h-.664c.664.383 1.944 1.474 1.751 2.778l.966 19.26c.06.342-.242 1.316-1.932 2.475zm2.898-2.053c-.06.422-1.207 1.51-1.811 1.63l.664-.664a3.35 3.35 0 00.543-.966l-.785-19.683c0-.604-.523-1.61-.784-1.993 1.267 1.148 1.448 1.751 1.448 1.993l.725 19.683z" fill="#fff" stroke="#fff" stroke-width=".121"/><path fill-rule="evenodd" clip-rule="evenodd" d="M27.119 43.11c.684-.161 2.113-.544 2.354-.846.363-.302.846-.906.846-1.207 0-.306-.342-13.243-.483-19.683-.121-.705-.858-2.246-2.838-2.778h-.664c.664.383 1.944 1.474 1.75 2.778l.967 19.26c.06.342-.242 1.316-1.932 2.475zm2.898-2.053c-.06.422-1.208 1.51-1.812 1.63l.665-.664c.241-.302.442-.665.543-.966l-.785-19.683c0-.604-.523-1.61-.785-1.993 1.268 1.148 1.45 1.751 1.45 1.993l.724 19.683z" fill="#fff" stroke="#fff" stroke-width=".121"/><path fill-rule="evenodd" clip-rule="evenodd" d="M25.79 43.11c.685-.161 2.114-.544 2.355-.846.362-.302.845-.906.845-1.207 0-.306-.342-13.243-.483-19.683-.12-.705-.857-2.246-2.837-2.778h-.665c.665.383 1.945 1.474 1.751 2.778l.966 19.26c.06.342-.241 1.316-1.932 2.475zm2.899-2.053c-.06.422-1.208 1.51-1.812 1.63l.664-.664a3.35 3.35 0 00.544-.966L27.3 21.374c0-.604-.524-1.61-.785-1.993 1.268 1.148 1.449 1.751 1.449 1.993l.725 19.683z" fill="#fff" stroke="#fff" stroke-width=".121"/><path fill-rule="evenodd" clip-rule="evenodd" d="M24.704 43.11c.684-.161 2.113-.544 2.354-.846.363-.302.846-.906.846-1.207 0-.306-.343-13.243-.483-19.683-.121-.705-.858-2.246-2.838-2.778h-.664c.664.383 1.944 1.474 1.75 2.778l.967 19.26c.06.342-.242 1.316-1.932 2.475zm2.898-2.053c-.06.422-1.208 1.51-1.812 1.63l.665-.664a3.35 3.35 0 00.543-.966l-.785-19.683c0-.604-.523-1.61-.785-1.993 1.268 1.148 1.45 1.751 1.45 1.993l.724 19.683z" fill="#fff" stroke="#fff" stroke-width=".121"/><path fill-rule="evenodd" clip-rule="evenodd" d="M23.738 43.11c.684-.161 2.113-.544 2.354-.846.363-.302.846-.906.846-1.207 0-.306-.343-13.243-.483-19.683-.121-.705-.858-2.246-2.838-2.778h-.664c.664.383 1.944 1.474 1.75 2.778l.967 19.26c.06.342-.242 1.316-1.933 2.475zm2.898-2.053c-.06.422-1.208 1.51-1.812 1.63l.664-.664c.242-.302.443-.665.544-.966l-.785-19.683c0-.604-.523-1.61-.785-1.993 1.268 1.148 1.45 1.751 1.45 1.993l.724 19.683z" fill="#fff" stroke="#fff" stroke-width=".121"/><path d="M9.911 43.11l-.03 1.328m24.241-1.268v1.268m-24.241 0l-.03 1.328c.04.201.314.628 1.087.725l22.4-.121c.2-.1.64-.459.784-1.087v-.845m-24.241 0l-2.204 3.14c-.04.1-.048.325.242.422l28.317-.302c.16 0 .422-.06.18-.302-.24-.241-1.63-2.073-2.294-2.958" stroke="#fff" stroke-width=".725"/><path d="M16.794 20.227h1.811l2.959 13.343.241.12 3.744-12.377c.181-.322.7-.966 1.328-.966h1.932l-4.588 16.604-.423 1.811-.12 1.027c-.564.664-1.704 2.234-1.752 2.717h-1.871L15.526 24.15l-.18-3.019 1.448-.905z" fill="#FF4E4E"/><path fill-rule="evenodd" clip-rule="evenodd" d="M30.62 21.374l2.053-.725h1.69l5.133 19.14-1.872 2.898-1.388-.362-2.053-8.574h-2.657l-1.63 6.159-2.294 2.535h-2.415l5.433-21.071zM33.76 32h-1.75c.192-1.642.684-3.019.905-3.502L33.76 32z" fill="#FF4E4E"/><path d="M5.685 20.045h2.173l.121 6.46.181.182 3.502-6.098 1.087-.181.423-.181h2.052L9.247 31.094v1.63l4.347 7.004-.785 2.717h-1.75l-3.382-5.917h-.241v3.442l-1.51 2.475h-1.75l-.121-18.837.362-1.932 1.268-1.63z" fill="#FF4E4E"/><path d="M26.877 20.347c-.628 0-1.147.644-1.328.966l-3.744 12.378-.241-.121-2.959-13.343h-1.81l-1.45.905.181 3.02 4.529 18.354h1.871c.049-.483 1.188-2.053 1.751-2.717l.12-1.027.424-1.811 4.588-16.604m-1.932 0h1.932m-1.932 0h1.932m-23.124-.302h2.173l.121 6.46.181.182 3.502-6.098 1.087-.181.423-.181h2.052L9.247 31.094v1.63l4.347 7.004-.785 2.717h-1.75l-3.382-5.917h-.241v3.442l-1.51 2.475h-1.75l-.121-18.837.362-1.932 1.268-1.63zm24.936 1.329l2.052-.725h1.69l5.133 19.14-1.872 2.898-1.388-.362-2.053-8.574h-2.657l-1.63 6.159-2.294 2.535h-2.415l5.433-21.071zM32.008 32h1.751l-.845-3.502c-.221.483-.713 1.86-.906 3.502z" stroke="#fff" stroke-width=".483"/></svg>