<svg width="180" height="180" viewBox="0 0 180 180" fill="none" xmlns="http://www.w3.org/2000/svg">
<path d="M31.9054 9.91358C25.3619 3.35665 16.4367 0.135001 6.55472 0.00088368C2.90884 -0.0485281 -0.0484571 2.91512 0.000601685 6.56841C0.134366 16.4712 3.34931 25.4151 9.89283 31.972C16.4364 38.529 25.3615 41.7506 35.2435 41.8847C38.8891 41.9342 41.8467 38.9705 41.7973 35.3172C41.6635 25.4148 38.4486 16.4709 31.9054 9.91358V9.91358Z" fill="url(#paint0_linear)"/>
<path d="M31.9054 9.9134C25.3619 3.35646 16.4367 0.134813 6.55472 0.000695894C5.62014 -0.01201 4.73214 0.176108 3.92708 0.520225C11.3268 1.67152 17.9501 4.75658 23.0964 9.91375C29.6399 16.4707 32.8548 25.4149 32.9886 35.3174C33.0253 38.0343 31.3979 40.3669 29.0625 41.3654C31.0714 41.6777 33.134 41.8563 35.2439 41.8849C38.8894 41.9343 41.8471 38.9707 41.7977 35.3174C41.6635 25.4146 38.4486 16.4707 31.9054 9.9134V9.9134Z" fill="url(#paint1_linear)"/>
<path d="M51.463 154.173C50.8178 151.639 48.4224 149.942 45.8279 150.215C44.7663 150.327 43.7007 150.383 42.6366 150.383C28.7738 150.383 16.6668 141.094 13.1946 127.794C13.0859 127.378 12.9804 126.96 12.878 126.54C7.84791 105.941 11.0632 84.6599 21.9313 66.6176C32.7991 48.5756 50.0935 35.8069 70.628 30.6631C76.9598 29.077 83.4447 28.273 89.9028 28.273C90.3916 28.273 115.343 28.2451 125.878 28.2868V17.7007C116.377 17.6629 90.4601 17.6852 89.9028 17.6852C82.6954 17.6852 75.3729 18.5608 68.0656 20.3912C19.9697 32.4381 -9.16879 80.8012 2.6145 129.057C2.73026 129.531 2.84956 130.004 2.97238 130.475C7.77379 148.866 24.4552 160.971 42.6362 160.971C44.0614 160.971 45.4951 160.897 46.933 160.746C50.1225 160.41 52.256 157.287 51.463 154.173V154.173Z" fill="url(#paint2_linear)"/>
<path d="M176.419 40.3786H148.77C146.792 40.3786 145.189 38.772 145.189 36.7899C145.189 34.8078 146.792 33.2012 148.77 33.2012H176.419C178.396 33.2012 180 34.8078 180 36.7899C180 38.772 178.396 40.3786 176.419 40.3786V40.3786Z" fill="url(#paint3_linear)"/>
<path d="M176.419 13.6224H148.77C146.792 13.6224 145.189 12.0159 145.189 10.0337C145.189 8.05163 146.792 6.44504 148.77 6.44504H176.419C178.396 6.44504 180 8.05163 180 10.0337C180 12.0159 178.396 13.6224 176.419 13.6224V13.6224Z" fill="url(#paint4_linear)"/>
<path d="M121.073 23.4325V23.3908C121.073 12.408 129.977 3.50436 140.96 3.50436H153.692V43.3189H140.96C129.976 43.3189 121.073 34.4156 121.073 23.4325V23.4325Z" fill="url(#paint5_linear)"/>
<path d="M143.258 3.50507H153.693V43.3175H143.258V3.50507Z" fill="url(#paint6_linear)"/>
<path d="M150.53 42.0042V4.81906C150.53 2.15753 152.688 0 155.349 0C158.011 0 160.168 2.15753 160.168 4.81906V42.0042C160.168 44.6657 158.011 46.8233 155.349 46.8233C152.688 46.8236 150.53 44.6657 150.53 42.0042Z" fill="url(#paint7_linear)"/>
<path d="M89.8357 179.986C129.683 179.986 161.986 147.616 161.986 107.685C161.986 67.7544 129.683 35.3842 89.8357 35.3842C49.9884 35.3842 17.6858 67.7544 17.6858 107.685C17.6858 147.616 49.9884 179.986 89.8357 179.986Z" fill="url(#paint8_linear)"/>
<path d="M159.795 90.0038C150.945 54.8424 117.786 32.2581 82.8313 35.7183C112.255 38.6311 138.053 59.6213 145.7 90.0038C155.444 128.722 132.022 168.026 93.3846 177.791C89.835 178.688 86.2806 179.302 82.7444 179.652C90.8169 180.451 99.1615 179.893 107.48 177.791C146.117 168.026 169.54 128.722 159.795 90.0038V90.0038Z" fill="url(#paint9_linear)"/>
<path d="M46.364 145.137L31.2652 149.937C43.3262 166.716 62.1468 177.613 82.7444 179.652C84.0796 177.678 84.62 175.249 84.1456 172.914C82.2673 163.665 74.1059 156.706 64.3223 156.706C60.6835 156.706 57.4986 154.256 56.558 150.733C55.3739 146.297 50.7327 143.749 46.364 145.137Z" fill="url(#paint10_linear)"/>
<path d="M106.992 150.343C110.697 165.066 128.911 170.357 139.828 159.828C157.874 142.425 166.358 116.083 159.795 90.0038C159.739 89.7839 159.683 89.5648 159.626 89.3459C157.537 81.3589 149.427 76.5416 141.438 78.5608C137.58 79.5359 134.267 82.0065 132.227 85.4297L122.514 101.729C119.863 106.177 121.312 111.936 125.751 114.593C130.19 117.249 131.64 123.008 128.989 127.457C125.07 134.033 118.704 138.78 111.292 140.653C107.792 141.538 105.671 145.098 106.554 148.605L106.992 150.343Z" fill="url(#paint11_linear)"/>
<path d="M159.626 89.346C157.565 81.4645 149.641 76.674 141.755 78.4892C143.363 82.1513 144.691 85.9948 145.7 90.0039C152.877 118.521 142.061 147.353 120.427 164.469C126.874 166.437 134.29 165.17 139.828 159.828C157.874 142.425 166.359 116.083 159.795 90.0039C159.74 89.784 159.683 89.5644 159.626 89.346V89.346Z" fill="url(#paint12_linear)"/>
<path d="M77.7426 44.5179C71.0261 40.4986 62.6833 40.2356 55.7829 43.9295C39.0175 52.9048 26.7091 68.0894 21.08 85.7523C18.1538 94.9344 21.8847 104.928 30.1432 109.871C34.4219 112.431 37.5101 116.59 38.7288 121.432C40.2394 127.433 46.3188 131.071 52.3075 129.558C62.0145 127.104 67.8987 117.23 65.4507 107.503L64.3753 103.23C62.5912 96.1415 66.8794 88.9457 73.9531 87.1581C77.3501 86.2997 80.2675 84.1239 82.0636 81.1097L85.5009 75.342C91.8521 64.6835 88.3788 50.8832 77.7426 44.5179Z" fill="url(#paint13_linear)"/>
<path d="M100.67 61.4248C105.692 61.4248 109.763 57.3451 109.763 52.3125C109.763 47.28 105.692 43.2003 100.67 43.2003C95.6477 43.2003 91.5764 47.28 91.5764 52.3125C91.5764 57.3451 95.6477 61.4248 100.67 61.4248Z" fill="url(#paint14_linear)"/>
<defs>
<linearGradient id="paint0_linear" x1="-2.08987" y1="20.943" x2="42.2127" y2="20.943" gradientUnits="userSpaceOnUse">
<stop stop-color="#A2E62E"/>
<stop offset="0.7542" stop-color="#09A76D"/>
<stop offset="1" stop-color="#017B4E"/>
</linearGradient>
<linearGradient id="paint1_linear" x1="-25.6593" y1="20.9428" x2="36.7877" y2="20.9428" gradientUnits="userSpaceOnUse">
<stop stop-color="#A2E62E"/>
<stop offset="1" stop-color="#02905D"/>
</linearGradient>
<linearGradient id="paint2_linear" x1="0.000264065" y1="89.3248" x2="125.878" y2="89.3248" gradientUnits="userSpaceOnUse">
<stop stop-color="#A79BA7"/>
<stop offset="0.7487" stop-color="#7A6D79"/>
<stop offset="1" stop-color="#685E68"/>
</linearGradient>
<linearGradient id="paint3_linear" x1="142.342" y1="36.7899" x2="179.924" y2="36.7899" gradientUnits="userSpaceOnUse">
<stop stop-color="#F8F6F7"/>
<stop offset="1" stop-color="#D1CEEB"/>
</linearGradient>
<linearGradient id="paint4_linear" x1="142.342" y1="10.0337" x2="179.924" y2="10.0337" gradientUnits="userSpaceOnUse">
<stop stop-color="#F8F6F7"/>
<stop offset="1" stop-color="#D1CEEB"/>
</linearGradient>
<linearGradient id="paint5_linear" x1="120.477" y1="23.4116" x2="153.602" y2="23.4116" gradientUnits="userSpaceOnUse">
<stop stop-color="#FFF9DF"/>
<stop offset="0.593" stop-color="#FFE177"/>
<stop offset="1" stop-color="#FEB137"/>
</linearGradient>
<linearGradient id="paint6_linear" x1="135.094" y1="23.4113" x2="153.748" y2="23.4113" gradientUnits="userSpaceOnUse">
<stop stop-color="#FFE177"/>
<stop offset="1" stop-color="#FEB137"/>
</linearGradient>
<linearGradient id="paint7_linear" x1="144.603" y1="23.4116" x2="163.802" y2="23.4116" gradientUnits="userSpaceOnUse">
<stop stop-color="#FFF9DF"/>
<stop offset="0.593" stop-color="#FFE177"/>
<stop offset="1" stop-color="#FEB137"/>
</linearGradient>
<linearGradient id="paint8_linear" x1="17.1338" y1="107.685" x2="160.646" y2="107.685" gradientUnits="userSpaceOnUse">
<stop stop-color="#01D0FB"/>
<stop offset="0.6075" stop-color="#26A6FE"/>
<stop offset="1" stop-color="#0182FC"/>
</linearGradient>
<linearGradient id="paint9_linear" x1="82.4512" y1="107.685" x2="161.258" y2="107.685" gradientUnits="userSpaceOnUse">
<stop stop-color="#01BFFA"/>
<stop offset="0.2539" stop-color="#1F9EFC"/>
<stop offset="0.5724" stop-color="#407AFD"/>
<stop offset="0.8326" stop-color="#5464FF"/>
<stop offset="1" stop-color="#5B5CFF"/>
</linearGradient>
<linearGradient id="paint10_linear" x1="13.8376" y1="162.205" x2="87.3913" y2="162.205" gradientUnits="userSpaceOnUse">
<stop stop-color="#A2E62E"/>
<stop offset="0.7542" stop-color="#09A76D"/>
<stop offset="1" stop-color="#017B4E"/>
</linearGradient>
<linearGradient id="paint11_linear" x1="64.2412" y1="121.724" x2="157.496" y2="121.724" gradientUnits="userSpaceOnUse">
<stop stop-color="#A2E62E"/>
<stop offset="0.7542" stop-color="#09A76D"/>
<stop offset="1" stop-color="#017B4E"/>
</linearGradient>
<linearGradient id="paint12_linear" x1="106.773" y1="121.725" x2="171.329" y2="121.725" gradientUnits="userSpaceOnUse">
<stop stop-color="#09A76D"/>
<stop offset="1" stop-color="#026841"/>
</linearGradient>
<linearGradient id="paint13_linear" x1="6.94861" y1="85.6118" x2="121.562" y2="85.6118" gradientUnits="userSpaceOnUse">
<stop stop-color="#A2E62E"/>
<stop offset="0.7542" stop-color="#09A76D"/>
<stop offset="1" stop-color="#017B4E"/>
</linearGradient>
<linearGradient id="paint14_linear" x1="6.94857" y1="52.3125" x2="121.562" y2="52.3125" gradientUnits="userSpaceOnUse">
<stop stop-color="#A2E62E"/>
<stop offset="0.7542" stop-color="#09A76D"/>
<stop offset="1" stop-color="#017B4E"/>
</linearGradient>
</defs>
</svg>
