<svg width="138" height="180" fill="none" xmlns="http://www.w3.org/2000/svg"><path d="M68.572 0a2.856 2.856 0 00-2.858 2.857v11.429h5.715V2.857A2.855 2.855 0 0068.572 0z" fill="#EBC9A0"/><path d="M71.428 5.714h-5.715v8.572h5.715V5.714z" fill="#D7B48C"/><path d="M74.287 42.86H62.86v17.142h11.428V42.859z" fill="#DBD9DC"/><path d="M74.287 42.86H62.86v8.57h11.428v-8.57z" fill="#C9C6CA"/><path d="M74.286 34.286H62.857l-4.68 9.36a1.429 1.429 0 001.277 2.068h18.234a1.428 1.428 0 001.278-2.067l-4.68-9.361z" fill="#766E6E"/><path d="M77.143 40l-2.857-5.714H62.857L60 40h17.143z" fill="#DBD9DC"/><path d="M74.286 22.857H62.857l-4.68 9.361a1.429 1.429 0 001.277 2.068h18.234a1.428 1.428 0 001.278-2.068l-4.68-9.36z" fill="#766E6E"/><path d="M77.143 28.572l-2.857-5.715H62.857L60 28.572h17.143z" fill="#DBD9DC"/><path d="M72.52 11.429h-7.897a2.857 2.857 0 00-2.555 1.579l-3.891 7.782a1.429 1.429 0 001.278 2.067h18.234a1.428 1.428 0 001.277-2.067l-3.89-7.782a2.857 2.857 0 00-2.556-1.58z" fill="#766E6E"/><path d="M77.143 17.143l-2.068-4.135a2.857 2.857 0 00-2.555-1.58h-7.897a2.857 2.857 0 00-2.555 1.58L60 17.143h17.143z" fill="#DBD9DC"/><path d="M102.857 0A2.856 2.856 0 00100 2.857v11.429h5.715V2.857A2.856 2.856 0 00102.857 0z" fill="#EBC9A0"/><path d="M105.716 5.714h-5.715v8.572h5.715V5.714z" fill="#D7B48C"/><path d="M108.572 42.859H97.143v17.143h11.429V42.859z" fill="#DBD9DC"/><path d="M108.572 42.859H97.143v8.571h11.429V42.86z" fill="#C9C6CA"/><path d="M108.572 34.286H97.143l-4.68 9.36a1.429 1.429 0 001.277 2.068h18.234a1.429 1.429 0 001.278-2.067l-4.68-9.361z" fill="#766E6E"/><path d="M111.429 40l-2.857-5.714H97.143L94.286 40h17.143z" fill="#DBD9DC"/><path d="M108.572 22.857H97.143l-4.68 9.361a1.429 1.429 0 001.277 2.068h18.234a1.429 1.429 0 001.278-2.068l-4.68-9.36z" fill="#766E6E"/><path d="M111.429 28.572l-2.857-5.715H97.143l-2.857 5.715h17.143z" fill="#DBD9DC"/><path d="M106.806 11.429h-7.897a2.857 2.857 0 00-2.556 1.579l-3.89 7.782a1.429 1.429 0 001.277 2.067h18.234a1.428 1.428 0 001.278-2.067l-3.891-7.782a2.857 2.857 0 00-2.555-1.58z" fill="#766E6E"/><path d="M111.429 17.143l-2.068-4.135a2.857 2.857 0 00-2.555-1.58h-7.897a2.857 2.857 0 00-2.556 1.58l-2.067 4.135h17.143z" fill="#DBD9DC"/><path d="M34.286 0a2.856 2.856 0 00-2.857 2.857v11.429h5.714V2.857A2.856 2.856 0 0034.286 0z" fill="#EBC9A0"/><path d="M37.143 5.714H31.43v8.572h5.714V5.714z" fill="#D7B48C"/><path d="M40 42.859H28.57v17.143H40V42.859z" fill="#DBD9DC"/><path d="M40 42.859H28.57v8.571H40V42.86z" fill="#C9C6CA"/><path d="M128.569 68.572H8.57v94.286H128.57V68.572z" fill="#9C969E"/><path d="M54.286 74.286h74.286v-5.714h-120v94.285H20v-54.286c0-18.935 15.35-34.285 34.286-34.285z" fill="#867E88"/><path d="M131.429 68.572H5.714a2.857 2.857 0 01-2.857-2.858V60a2.857 2.857 0 012.857-2.857h125.714A2.858 2.858 0 01134.286 60v5.714a2.857 2.857 0 01-2.857 2.858z" fill="#C9C6CA"/><path d="M95.656 145.714H41.487a5.255 5.255 0 01-4.598-2.656 5.245 5.245 0 010-5.304l27.087-46.912a5.251 5.251 0 014.596-2.656 5.25 5.25 0 014.595 2.656l27.087 46.912c.96 1.66.96 3.644 0 5.304a5.255 5.255 0 01-4.598 2.656zm-.352-5.103h.031-.03z" fill="#5D5360"/><path d="M42.19 140h52.763L68.57 94.314 42.192 140z" fill="#FFDC64"/><path d="M40 34.286H28.571l-4.68 9.36a1.429 1.429 0 001.277 2.068h18.234a1.429 1.429 0 001.278-2.067L40 34.286z" fill="#766E6E"/><path d="M34.286 77.143a2.856 2.856 0 01-2.857-2.857v-5.714a2.856 2.856 0 012.857-2.858 2.856 2.856 0 012.857 2.858v5.714a2.855 2.855 0 01-2.857 2.857zM68.572 77.143a2.856 2.856 0 01-2.858-2.857v-5.714a2.856 2.856 0 012.858-2.858 2.856 2.856 0 012.857 2.858v5.714a2.855 2.855 0 01-2.858 2.857zM102.857 77.143A2.856 2.856 0 01100 74.286v-5.714a2.856 2.856 0 012.857-2.858 2.855 2.855 0 012.857 2.858v5.714a2.855 2.855 0 01-2.857 2.857z" fill="#AEA8AF"/><path d="M68.572 135.918a2.859 2.859 0 01-2.729-3.705l2.408-7.726h-3.24a2.86 2.86 0 01-2.728-3.709l3.56-11.428a2.87 2.87 0 013.58-1.878 2.86 2.86 0 011.877 3.58l-2.405 7.72h3.237a2.86 2.86 0 012.729 3.706l-3.56 11.434a2.86 2.86 0 01-2.73 2.006z" fill="#5D5360"/><path d="M17.143 62.857A2.857 2.857 0 0114.286 60v-2.857H5.714A2.857 2.857 0 002.857 60v5.714a2.857 2.857 0 002.857 2.858h125.714a2.857 2.857 0 002.858-2.858v-2.857H17.143z" fill="#B7B2B8"/><path d="M134.286 180H2.857A2.857 2.857 0 010 177.143v-11.429a2.858 2.858 0 012.857-2.857h131.429a2.858 2.858 0 012.857 2.857v11.429a2.857 2.857 0 01-2.857 2.857z" fill="#C9C6CA"/><path d="M14.286 171.429a5.715 5.715 0 01-5.715-5.715v-2.857H2.857A2.858 2.858 0 000 165.714v11.429A2.857 2.857 0 002.857 180h131.429a2.857 2.857 0 002.857-2.857v-5.714H14.286z" fill="#B7B2B8"/><path d="M42.857 40L40 34.286H28.571L25.714 40h17.143z" fill="#DBD9DC"/><path d="M40 22.857H28.571l-4.68 9.361a1.429 1.429 0 001.277 2.068h18.234a1.429 1.429 0 001.278-2.068L40 22.858z" fill="#766E6E"/><path d="M42.857 28.572L40 22.857H28.571l-2.857 5.715h17.143z" fill="#DBD9DC"/><path d="M38.234 11.429h-7.897a2.857 2.857 0 00-2.555 1.579l-3.89 7.782a1.429 1.429 0 001.277 2.067h18.234a1.429 1.429 0 001.278-2.067l-3.891-7.782a2.857 2.857 0 00-2.556-1.58z" fill="#766E6E"/><path d="M42.857 17.143l-2.067-4.135a2.857 2.857 0 00-2.556-1.58h-7.897a2.857 2.857 0 00-2.555 1.58l-2.068 4.135h17.143z" fill="#DBD9DC"/></svg>