<?xml version="1.0" standalone="no"?>
<!DOCTYPE svg PUBLIC "-//W3C//DTD SVG 1.1//EN" "http://www.w3.org/Graphics/SVG/1.1/DTD/svg11.dtd" >
<svg xmlns="http://www.w3.org/2000/svg" xmlns:xlink="http://www.w3.org/1999/xlink" version="1.1">
<metadata>
Created by FontForge 20170731 at Sun Nov 10 13:34:17 2019
 By Aleksey,,,
Typeface (c) Darrell Flood. 2019. All Rights Reserved
</metadata>
<defs>
<font id="ModernMachine" horiz-adv-x="1500" >
  <font-face 
    font-family="Modern Machine"
    font-weight="400"
    font-stretch="normal"
    units-per-em="2048"
    panose-1="2 0 5 0 0 0 0 0 0 0"
    ascent="1638"
    descent="-410"
    x-height="1400"
    cap-height="1400"
    bbox="50 -409 9080 2100"
    underline-thickness="150"
    underline-position="-442"
    unicode-range="U+001D-2212"
  />
<missing-glyph 
 />
    <glyph glyph-name=".notdef" 
 />
    <glyph glyph-name="uni0000" horiz-adv-x="0" 
 />
    <glyph glyph-name="uni0000" horiz-adv-x="0" 
 />
    <glyph glyph-name="nonmarkingreturn" horiz-adv-x="682" 
 />
    <glyph glyph-name="space" unicode=" " horiz-adv-x="508" 
 />
    <glyph glyph-name="space" unicode="&#xa0;" horiz-adv-x="508" 
 />
    <glyph glyph-name="exclam" unicode="!" horiz-adv-x="600" 
d="M150 500l-100 900h500l-100 -900h-300zM300 0q-83 0 -141.5 58.5t-58.5 141.5t58.5 141.5t141.5 58.5t141.5 -58.5t58.5 -141.5t-58.5 -141.5t-141.5 -58.5z" />
    <glyph glyph-name="quotedbl" unicode="&#x22;" horiz-adv-x="1000" 
d="M450 1400v-600h-400v600h400zM950 1400v-600h-400v600h400z" />
    <glyph glyph-name="numbersign" unicode="#" horiz-adv-x="1700" 
d="M250 600v200h-200l100 400h100v200h400v-200h400v200h400v-200h200l-100 -400h-100v-200h200l-100 -400h-100v-200h-400v200h-400v-200h-400v200h-200l100 400h100zM650 800v-200h400v200h-400z" />
    <glyph glyph-name="dollar" unicode="$" horiz-adv-x="1400" 
d="M550 1400v200h200v-200h500l-100 -400h-600q-100 0 -100 -46q0 -54 100 -54h300q500 0 500 -446q0 -454 -500 -454h-100v-200h-200v200h-400l100 400h600q100 0 100 54q0 46 -100 46h-300q-500 0 -500 454q0 446 500 446z" />
    <glyph glyph-name="percent" unicode="%" horiz-adv-x="1400" 
d="M1350 1400l-849 -1400h-451l853 1400h447zM250 900q-83 0 -141.5 58.5t-58.5 141.5t58.5 141.5t141.5 58.5t141.5 -58.5t58.5 -141.5t-58.5 -141.5t-141.5 -58.5zM1150 100q-83 0 -141.5 58.5t-58.5 141.5t58.5 141.5t141.5 58.5t141.5 -58.5t58.5 -141.5t-58.5 -141.5
t-141.5 -58.5z" />
    <glyph glyph-name="ampersand" unicode="&#x26;" horiz-adv-x="1600" 
d="M850 900q100 0 100 50t-100 50h-300q-100 -3 -100 -53q0 -47 100 -47h300zM550 400h300q100 3 100 53q0 47 -100 47h-300q-100 0 -100 -50t100 -50zM950 4q-47 -4 -100 -4h-300q-500 0 -500 400q0 200 200 300q-200 100 -200 300q0 400 500 400h300q500 0 500 -400
q0 -200 -200 -300q200 -100 200 -300h200l-100 -400h-500v4z" />
    <glyph glyph-name="quotesingle" unicode="'" horiz-adv-x="500" 
d="M450 1400v-600h-400v600h400z" />
    <glyph glyph-name="parenleft" unicode="(" horiz-adv-x="800" 
d="M50 900q0 700 700 700v-400q-300 0 -300 -300v-400q0 -300 300 -300v-400q-700 0 -700 700v400z" />
    <glyph glyph-name="parenright" unicode=")" horiz-adv-x="800" 
d="M750 500q0 -700 -700 -700v400q300 0 300 300v400q0 300 -300 300v400q700 0 700 -700v-400z" />
    <glyph glyph-name="asterisk" unicode="*" horiz-adv-x="1100" 
d="M450 662l-187 -184l-140 143l182 179h-255v200h255l-182 179l140 143l187 -184v262h200v-262l187 184l140 -143l-182 -179h255v-200h-255l182 -179l-140 -143l-187 184v-262h-200v262z" />
    <glyph glyph-name="plus" unicode="+" horiz-adv-x="1100" 
d="M750 900h300v-400h-300v-300h-400v300h-300v400h300v300h400v-300z" />
    <glyph glyph-name="comma" unicode="," horiz-adv-x="600" 
d="M550 400l-200 -700h-300l100 700h400z" />
    <glyph glyph-name="hyphen" unicode="-" horiz-adv-x="1100" 
d="M1050 900v-400h-1000v400h1000z" />
    <glyph glyph-name="hyphen" unicode="&#xad;" horiz-adv-x="1100" 
d="M1050 900v-400h-1000v400h1000z" />
    <glyph glyph-name="period" unicode="." horiz-adv-x="500" 
d="M250 0q-83 0 -141.5 58.5t-58.5 141.5t58.5 141.5t141.5 58.5t141.5 -58.5t58.5 -141.5t-58.5 -141.5t-141.5 -58.5z" />
    <glyph glyph-name="slash" unicode="/" horiz-adv-x="1415" 
d="M1365 1600l-897 -1800h-418l909 1800h406z" />
    <glyph glyph-name="zero" unicode="0" 
d="M750 0q-290 0 -495 205t-205 495t205 495t495 205t495 -205t205 -495t-205 -495t-495 -205zM962 488q88 88 88 212t-88 212t-212 88t-212 -88t-88 -212t88 -212t212 -88t212 88z" />
    <glyph glyph-name="one" unicode="1" horiz-adv-x="600" 
d="M150 1400h400v-1400h-400v1000h-100z" />
    <glyph glyph-name="two" unicode="2" horiz-adv-x="1400" 
d="M850 1400q500 0 500 -459q0 -441 -500 -441h-200q-200 0 -200 -41v-59h900v-400h-1300v459q0 441 600 441h200q100 0 100 41q0 59 -100 59h-700l100 400h600z" />
    <glyph glyph-name="three" unicode="3" horiz-adv-x="1400" 
d="M1350 400q0 -400 -500 -400h-800l100 400h700q100 0 100 50t-100 50h-400l100 400h300q100 0 100 50t-100 50h-800l100 400h700q500 0 500 -400q0 -250 -200 -300q200 -50 200 -300z" />
    <glyph glyph-name="four" unicode="4" horiz-adv-x="1400" 
d="M1150 500v-500h-400v500h-700v900h400v-500h300v500h400v-500h200l-100 -400h-100z" />
    <glyph glyph-name="five" unicode="5" horiz-adv-x="1400" 
d="M50 0v400h800q100 0 100 59q0 41 -100 41h-800v900h1200l-100 -400h-700v-100h400q500 0 500 -441q0 -459 -500 -459h-800z" />
    <glyph glyph-name="six" unicode="6" horiz-adv-x="1400" 
d="M550 400h300q100 0 100 59q0 41 -100 41h-400q0 -100 100 -100zM550 1400h700l-100 -400h-600q-100 0 -100 -100h400q500 0 500 -441q0 -459 -500 -459h-300q-500 0 -500 447v454q0 499 500 499z" />
    <glyph glyph-name="seven" unicode="7" horiz-adv-x="1400" 
d="M550 0h-500l600 1000h-600l100 400h1200z" />
    <glyph glyph-name="eight" unicode="8" horiz-adv-x="1400" 
d="M850 900q100 0 100 50t-100 50h-300q-100 -3 -100 -53q0 -47 100 -47h300zM550 400h300q100 3 100 53q0 47 -100 47h-300q-100 0 -100 -50t100 -50zM50 1000q0 400 500 400h300q500 0 500 -400q0 -200 -200 -300q200 -100 200 -300q0 -400 -500 -400h-300
q-500 0 -500 400q0 200 200 300q-200 100 -200 300z" />
    <glyph glyph-name="nine" unicode="9" horiz-adv-x="1400" 
d="M850 1000h-300q-100 0 -100 -59q0 -41 100 -41h400q0 100 -100 100zM850 0h-700l100 400h600q100 0 100 100h-400q-500 0 -500 441q0 459 500 459h300q500 0 500 -447v-453q0 -500 -500 -500z" />
    <glyph glyph-name="colon" unicode=":" horiz-adv-x="500" 
d="M250 200q-83 0 -141.5 58.5t-58.5 141.5t58.5 141.5t141.5 58.5t141.5 -58.5t58.5 -141.5t-58.5 -141.5t-141.5 -58.5zM250 800q-83 0 -141.5 58.5t-58.5 141.5t58.5 141.5t141.5 58.5t141.5 -58.5t58.5 -141.5t-58.5 -141.5t-141.5 -58.5z" />
    <glyph glyph-name="semicolon" unicode=";" horiz-adv-x="600" 
d="M550 600l-200 -700h-300l100 700h400zM350 800q-83 0 -141.5 58.5t-58.5 141.5t58.5 141.5t141.5 58.5t141.5 -58.5t58.5 -141.5t-58.5 -141.5t-141.5 -58.5z" />
    <glyph glyph-name="semicolon" unicode="&#x37e;" horiz-adv-x="600" 
d="M550 600l-200 -700h-300l100 700h400zM350 800q-83 0 -141.5 58.5t-58.5 141.5t58.5 141.5t141.5 58.5t141.5 -58.5t58.5 -141.5t-58.5 -141.5t-141.5 -58.5z" />
    <glyph glyph-name="less" unicode="&#x3c;" horiz-adv-x="1200" 
d="M50 900l1100 500v-400l-700 -300l700 -300v-400l-1100 500v400z" />
    <glyph glyph-name="equal" unicode="=" horiz-adv-x="1100" 
d="M1050 1200v-400h-1000v400h1000zM1050 600v-400h-1000v400h1000z" />
    <glyph glyph-name="greater" unicode="&#x3e;" horiz-adv-x="1200" 
d="M1150 500l-1100 -500v400l700 300l-700 300v400l1100 -500v-400z" />
    <glyph glyph-name="question" unicode="?" horiz-adv-x="1400" 
d="M650 0q-83 0 -141.5 58.5t-58.5 141.5t58.5 141.5t141.5 58.5t141.5 -58.5t58.5 -141.5t-58.5 -141.5t-141.5 -58.5zM450 900h300q100 0 100 41q0 59 -100 59h-700l100 400h700q500 0 500 -459q0 -341 -500 -341l-50 -100h-300z" />
    <glyph glyph-name="at" unicode="@" horiz-adv-x="1510" 
d="M770 425q-79 -67 -201 -67q-113 0 -167 66q-38 46 -38 114q0 30 7 65q38 180 188 318.5t326 138.5q90 0 246 -77q-112 -235 -131 -291.5t-28 -95.5q-3 -14 -3 -24q0 -20 13 -20q73 0 141 92.5t95 221.5q18 62 18 112q0 86 -52 138q-82 83 -229 83q-233 0 -421 -175
t-244 -441q-12 -56 -12 -106q0 -102 52 -173q77 -105 236 -105q84 0 173 29t167 100l92 -164q-108 -80 -242.5 -122t-250.5 -42q-247 0 -369 157q-86 109 -86 264q0 67 16 142q76 357 344 596t606 239q243 0 361 -135q83 -95 83 -238q0 -61 -15 -130q-44 -206 -189 -366.5
t-326 -160.5q-122 0 -160 57zM842 886q-70 0 -142 -86t-94 -187q-3 -15 -3 -27q0 -38 34 -38q47 0 90 40t71.5 109t71.5 180q-7 9 -28 9z" />
    <glyph glyph-name="A" unicode="A" 
d="M520 200l-70 -200h-400l500 1400h400l500 -1400h-400l-71 200h-459zM885 600l-135 400l-132 -400h267z" />
    <glyph glyph-name="B" unicode="B" horiz-adv-x="1300" 
d="M50 0v1400h700q500 0 500 -451q0 -199 -200 -249q200 -50 200 -256q0 -444 -500 -444h-700zM450 1000v-150h300q100 0 100 75t-100 75h-300zM450 550v-150h300q100 0 100 75t-100 75h-300z" />
    <glyph glyph-name="C" unicode="C" horiz-adv-x="1200" 
d="M1150 1400l-100 -400h-300q-124 0 -212 -88t-88 -212t88 -212t212 -88h400v-400h-400q-290 0 -495 205t-205 495t205 495t495 205h400z" />
    <glyph glyph-name="D" unicode="D" horiz-adv-x="1300" 
d="M50 0v1400h700q500 0 500 -700t-500 -700h-700zM450 1000v-600h200q200 0 200 300t-200 300h-200z" />
    <glyph glyph-name="E" unicode="E" horiz-adv-x="1100" 
d="M1050 1400l-100 -400h-500v-100h600l-100 -400h-500v-100h600l-100 -400h-900v1400h1000z" />
    <glyph glyph-name="F" unicode="F" horiz-adv-x="1100" 
d="M1050 1400l-100 -400h-500v-100h600l-100 -400h-500v-500h-400v1400h1000z" />
    <glyph glyph-name="G" unicode="G" horiz-adv-x="1300" 
d="M750 0q-290 0 -495 205t-205 495t205 495t495 205h400l-100 -400h-300q-124 0 -212 -88t-88 -212t88 -212t212 -88h100v400h400v-800h-500z" />
    <glyph glyph-name="H" unicode="H" horiz-adv-x="1400" 
d="M50 1400h400v-500h500v500h400v-1400h-400v500h-500v-500h-400v1400z" />
    <glyph glyph-name="I" unicode="I" horiz-adv-x="500" 
d="M450 1400v-1400h-400v1400h400z" />
    <glyph glyph-name="J" unicode="J" horiz-adv-x="1297" 
d="M1247 1400v-700q0 -700 -600 -700q-555 0 -597 599h404q30 -199 193 -199q200 0 200 300v300h-200l100 400h500z" />
    <glyph glyph-name="K" unicode="K" horiz-adv-x="1400" 
d="M450 900l400 500h500l-574 -700l574 -700h-500l-400 500v-500h-400v1400h400v-500z" />
    <glyph glyph-name="L" unicode="L" horiz-adv-x="1000" 
d="M50 1400h400v-1000h500l-100 -400h-800v1400z" />
    <glyph glyph-name="M" unicode="M" horiz-adv-x="1700" 
d="M1650 1400v-1400h-400v667l-400 -667l-400 664v-664h-400v1400h400l400 -700l400 700h400z" />
    <glyph glyph-name="N" unicode="N" horiz-adv-x="1300" 
d="M850 0l-400 664v-664h-400v1400h400l400 -700v700h400v-1400h-400z" />
    <glyph glyph-name="O" unicode="O" 
d="M750 0q-290 0 -495 205t-205 495t205 495t495 205t495 -205t205 -495t-205 -495t-495 -205zM962 488q88 88 88 212t-88 212t-212 88t-212 -88t-88 -212t88 -212t212 -88t212 88z" />
    <glyph glyph-name="P" unicode="P" horiz-adv-x="1300" 
d="M450 400v-400h-400v1400h700q500 0 500 -500t-500 -500h-300zM450 1000v-200h300q100 0 100 100t-100 100h-300z" />
    <glyph glyph-name="Q" unicode="Q" horiz-adv-x="1600" 
d="M1050 700q0 124 -88 212t-212 88t-212 -88t-88 -212t88 -212t212 -88t212 88t88 212zM1404 446l146 -146l-300 -300l-114 114q-169 -114 -386 -114q-290 0 -495 205t-205 495t205 495t495 205t495 -205t205 -495q0 -137 -46 -254z" />
    <glyph glyph-name="R" unicode="R" horiz-adv-x="1400" 
d="M450 1000v-200h300q100 0 100 100t-100 100h-300zM450 400v-400h-400v1400h700q500 0 500 -500q0 -400 -320 -480l420 -420h-500z" />
    <glyph glyph-name="S" unicode="S" horiz-adv-x="1400" 
d="M550 500q-500 0 -500 454q0 446 500 446h700l-100 -400h-600q-100 0 -100 -46q0 -54 100 -54h300q500 0 500 -446q0 -454 -500 -454h-700l100 400h600q100 0 100 54q0 46 -100 46h-300z" />
    <glyph glyph-name="T" unicode="T" horiz-adv-x="1100" 
d="M750 1000v-1000h-400v1000h-300v400h1000l-100 -400h-200z" />
    <glyph glyph-name="U" unicode="U" horiz-adv-x="1300" 
d="M50 700v700h400v-700q0 -300 200 -300t200 300v700h400v-700q0 -700 -600 -700t-600 700z" />
    <glyph glyph-name="V" unicode="V" 
d="M550 0l-500 1400h400l300 -800l300 800h400l-500 -1400h-400z" />
    <glyph glyph-name="W" unicode="W" horiz-adv-x="2300" 
d="M1150 500l-200 -500h-400l-500 1400h400l300 -800l400 800l400 -800l300 800h400l-500 -1400h-400z" />
    <glyph glyph-name="X" unicode="X" 
d="M526 700l-476 700h453l244 -364l249 364h454l-470 -703l470 -697h-445l-261 362l-237 -362h-457z" />
    <glyph glyph-name="Y" unicode="Y" 
d="M550 600l-500 800h427l273 -400l273 400h427l-500 -800v-600h-400v600z" />
    <glyph glyph-name="Z" unicode="Z" horiz-adv-x="1300" 
d="M1250 1400v-400l-673 -600h673l-100 -400h-1100v400l673 600h-673l100 400h1100z" />
    <glyph glyph-name="bracketleft" unicode="[" horiz-adv-x="800" 
d="M750 1600v-400h-300v-1000h300v-400h-700v1800h700z" />
    <glyph glyph-name="backslash" unicode="\" horiz-adv-x="1415" 
d="M456 1600l909 -1800h-418l-897 1800h406z" />
    <glyph glyph-name="bracketright" unicode="]" horiz-adv-x="800" 
d="M750 1600v-1800h-700v400h300v1000h-300v400h700z" />
    <glyph glyph-name="asciicircum" unicode="^" horiz-adv-x="1100" 
d="M850 1400l200 -500h-400l-100 250l-100 -250h-400l200 500h600z" />
    <glyph glyph-name="underscore" unicode="_" horiz-adv-x="1300" 
d="M1250 -100v-250h-1200v250h1200z" />
    <glyph glyph-name="grave" unicode="`" horiz-adv-x="700" 
d="M50 2000h400l200 -500h-400z" />
    <glyph glyph-name="a" unicode="a" 
d="M520 200l-70 -200h-400l500 1400h400l500 -1400h-400l-71 200h-459zM885 600l-135 400l-132 -400h267z" />
    <glyph glyph-name="b" unicode="b" horiz-adv-x="1300" 
d="M50 0v1400h700q500 0 500 -451q0 -199 -200 -249q200 -50 200 -256q0 -444 -500 -444h-700zM450 1000v-150h300q100 0 100 75t-100 75h-300zM450 550v-150h300q100 0 100 75t-100 75h-300z" />
    <glyph glyph-name="c" unicode="c" horiz-adv-x="1200" 
d="M1150 1400l-100 -400h-300q-124 0 -212 -88t-88 -212t88 -212t212 -88h400v-400h-400q-290 0 -495 205t-205 495t205 495t495 205h400z" />
    <glyph glyph-name="d" unicode="d" horiz-adv-x="1300" 
d="M50 0v1400h700q500 0 500 -700t-500 -700h-700zM450 1000v-600h200q200 0 200 300t-200 300h-200z" />
    <glyph glyph-name="e" unicode="e" horiz-adv-x="1100" 
d="M1050 1400l-100 -400h-500v-100h600l-100 -400h-500v-100h600l-100 -400h-900v1400h1000z" />
    <glyph glyph-name="f" unicode="f" horiz-adv-x="1100" 
d="M1050 1400l-100 -400h-500v-100h600l-100 -400h-500v-500h-400v1400h1000z" />
    <glyph glyph-name="g" unicode="g" horiz-adv-x="1300" 
d="M750 0q-290 0 -495 205t-205 495t205 495t495 205h400l-100 -400h-300q-124 0 -212 -88t-88 -212t88 -212t212 -88h100v400h400v-800h-500z" />
    <glyph glyph-name="h" unicode="h" horiz-adv-x="1400" 
d="M50 1400h400v-500h500v500h400v-1400h-400v500h-500v-500h-400v1400z" />
    <glyph glyph-name="i" unicode="i" horiz-adv-x="500" 
d="M450 1400v-1400h-400v1400h400z" />
    <glyph glyph-name="j" unicode="j" horiz-adv-x="1297" 
d="M1247 1400v-700q0 -700 -600 -700q-555 0 -597 599h404q30 -199 193 -199q200 0 200 300v300h-200l100 400h500z" />
    <glyph glyph-name="k" unicode="k" horiz-adv-x="1400" 
d="M450 900l400 500h500l-574 -700l574 -700h-500l-400 500v-500h-400v1400h400v-500z" />
    <glyph glyph-name="l" unicode="l" horiz-adv-x="1000" 
d="M50 1400h400v-1000h500l-100 -400h-800v1400z" />
    <glyph glyph-name="m" unicode="m" horiz-adv-x="1700" 
d="M1650 1400v-1400h-400v667l-400 -667l-400 664v-664h-400v1400h400l400 -700l400 700h400z" />
    <glyph glyph-name="n" unicode="n" horiz-adv-x="1300" 
d="M850 0l-400 664v-664h-400v1400h400l400 -700v700h400v-1400h-400z" />
    <glyph glyph-name="o" unicode="o" 
d="M750 0q-290 0 -495 205t-205 495t205 495t495 205t495 -205t205 -495t-205 -495t-495 -205zM962 488q88 88 88 212t-88 212t-212 88t-212 -88t-88 -212t88 -212t212 -88t212 88z" />
    <glyph glyph-name="p" unicode="p" horiz-adv-x="1300" 
d="M450 400v-400h-400v1400h700q500 0 500 -500t-500 -500h-300zM450 1000v-200h300q100 0 100 100t-100 100h-300z" />
    <glyph glyph-name="q" unicode="q" horiz-adv-x="1600" 
d="M1050 700q0 124 -88 212t-212 88t-212 -88t-88 -212t88 -212t212 -88t212 88t88 212zM1404 446l146 -146l-300 -300l-114 114q-169 -114 -386 -114q-290 0 -495 205t-205 495t205 495t495 205t495 -205t205 -495q0 -137 -46 -254z" />
    <glyph glyph-name="r" unicode="r" horiz-adv-x="1400" 
d="M450 1000v-200h300q100 0 100 100t-100 100h-300zM450 400v-400h-400v1400h700q500 0 500 -500q0 -400 -320 -480l420 -420h-500z" />
    <glyph glyph-name="s" unicode="s" horiz-adv-x="1400" 
d="M550 500q-500 0 -500 454q0 446 500 446h700l-100 -400h-600q-100 0 -100 -46q0 -54 100 -54h300q500 0 500 -446q0 -454 -500 -454h-700l100 400h600q100 0 100 54q0 46 -100 46h-300z" />
    <glyph glyph-name="t" unicode="t" horiz-adv-x="1100" 
d="M750 1000v-1000h-400v1000h-300v400h1000l-100 -400h-200z" />
    <glyph glyph-name="u" unicode="u" horiz-adv-x="1300" 
d="M50 700v700h400v-700q0 -300 200 -300t200 300v700h400v-700q0 -700 -600 -700t-600 700z" />
    <glyph glyph-name="v" unicode="v" 
d="M550 0l-500 1400h400l300 -800l300 800h400l-500 -1400h-400z" />
    <glyph glyph-name="w" unicode="w" horiz-adv-x="2300" 
d="M1150 500l-200 -500h-400l-500 1400h400l300 -800l400 800l400 -800l300 800h400l-500 -1400h-400z" />
    <glyph glyph-name="x" unicode="x" 
d="M526 700l-476 700h453l244 -364l249 364h454l-470 -703l470 -697h-445l-261 362l-237 -362h-457z" />
    <glyph glyph-name="y" unicode="y" 
d="M526 700l-476 700h453l244 -364l249 364h454l-943 -1400h-457z" />
    <glyph glyph-name="z" unicode="z" horiz-adv-x="1300" 
d="M1250 1400v-400l-673 -600h673l-100 -400h-1100v400l673 600h-673l100 400h1100z" />
    <glyph glyph-name="braceleft" unicode="{" horiz-adv-x="1000" 
d="M250 900q0 700 700 700v-400q-300 0 -300 -300v-400q0 -300 300 -300v-400q-700 0 -700 700h-200v400h200z" />
    <glyph glyph-name="bar" unicode="|" horiz-adv-x="500" 
d="M450 1600v-1800h-400v1800h400z" />
    <glyph glyph-name="braceright" unicode="}" horiz-adv-x="1000" 
d="M750 500q0 -700 -700 -700v400q300 0 300 300v400q0 300 -300 300v400q700 0 700 -700h200v-400h-200z" />
    <glyph glyph-name="asciitilde" unicode="~" horiz-adv-x="1100" 
d="M50 433v400q150 50 275 50t225 -50q67 -33 145 -33q155 0 355 133v-400q-200 -133 -355 -133q-78 0 -145 33q-100 50 -225 50t-275 -50z" />
    <glyph glyph-name="exclamdown" unicode="&#xa1;" horiz-adv-x="500" 
d="M450 900v-900h-400v900h400zM391.5 1341.5q58.5 -58.5 58.5 -141.5t-58.5 -141.5t-141.5 -58.5t-141.5 58.5t-58.5 141.5t58.5 141.5t141.5 58.5t141.5 -58.5z" />
    <glyph glyph-name="sterling" unicode="&#xa3;" 
d="M264 900q79 500 586 500t588 -500h-422q-51 100 -166 100t-164 -100h264l-100 -400h-200v-102h800v-398h-1200v500h-200l100 400h114z" />
    <glyph glyph-name="yen" unicode="&#xa5;" 
d="M950 200v-200h-400v200h-300l100 400h200l-500 800h427l273 -400l273 400h427l-500 -800h300l-100 -400h-200z" />
    <glyph glyph-name="dieresis" unicode="&#xa8;" horiz-adv-x="1000" 
d="M250 1500q-83 0 -141.5 58.5t-58.5 141.5t58.5 141.5t141.5 58.5t141.5 -58.5t58.5 -141.5t-58.5 -141.5t-141.5 -58.5zM750 1500q-83 0 -141.5 58.5t-58.5 141.5t58.5 141.5t141.5 58.5t141.5 -58.5t58.5 -141.5t-58.5 -141.5t-141.5 -58.5z" />
    <glyph glyph-name="degree" unicode="&#xb0;" horiz-adv-x="500" 
d="M250 1500q-83 0 -141.5 63t-58.5 151q0 89 58.5 152t141.5 63t141.5 -63t58.5 -152q0 -88 -58.5 -151t-141.5 -63z" />
    <glyph glyph-name="acute" unicode="&#xb4;" horiz-adv-x="700" 
d="M450 1500h-400l200 500h400z" />
    <glyph glyph-name="mu" unicode="&#xb5;" horiz-adv-x="1300" 
d="M450 700q0 -300 200 -300t200 300v700h400v-700q0 -700 -600 -700q-110 0 -200 24v-224h-400v1600h400v-700z" />
    <glyph glyph-name="cedilla" unicode="&#xb8;" horiz-adv-x="528" 
d="M315 -105q163 -12 163 -144q0 -151 -198 -151h-230v132h230q33 0 33 19q0 13 -33 13h-98v90h-2v172h133z" />
    <glyph glyph-name="questiondown" unicode="&#xbf;" horiz-adv-x="1400" 
d="M650 1400q83 0 141.5 -58.5t58.5 -141.5t-58.5 -141.5t-141.5 -58.5t-141.5 58.5t-58.5 141.5t58.5 141.5t141.5 58.5zM450 500l50 400h300l50 -100q500 0 500 -341q0 -459 -500 -459h-700l-100 400h700q100 0 100 59q0 41 -100 41h-300z" />
    <glyph glyph-name="Agrave" unicode="&#xc0;" 
d="M520 200l-70 -200h-400l500 1400h400l500 -1400h-400l-71 200h-459zM885 600l-135 400l-132 -400h267zM407 2000h400l200 -500h-400z" />
    <glyph glyph-name="Aacute" unicode="&#xc1;" 
d="M520 200l-70 -200h-400l500 1400h400l500 -1400h-400l-71 200h-459zM885 600l-135 400l-132 -400h267zM893 1500h-400l200 500h400z" />
    <glyph glyph-name="Acircumflex" unicode="&#xc2;" 
d="M520 200l-70 -200h-400l500 1400h400l500 -1400h-400l-71 200h-459zM885 600l-135 400l-132 -400h267zM1050 2000l200 -500h-400l-100 250l-100 -250h-400l200 500h600z" />
    <glyph glyph-name="Atilde" unicode="&#xc3;" 
d="M520 200l-70 -200h-400l500 1400h400l500 -1400h-400l-71 200h-459zM885 600l-135 400l-132 -400h267zM250 1533v400q150 50 275 50t225 -50q67 -33 145 -33q155 0 355 133v-400q-200 -133 -355 -133q-78 0 -145 33q-100 50 -225 50t-275 -50z" />
    <glyph glyph-name="Adieresis" unicode="&#xc4;" 
d="M520 200l-70 -200h-400l500 1400h400l500 -1400h-400l-71 200h-459zM885 600l-135 400l-132 -400h267zM500 1500q-83 0 -141.5 58.5t-58.5 141.5t58.5 141.5t141.5 58.5t141.5 -58.5t58.5 -141.5t-58.5 -141.5t-141.5 -58.5zM1000 1500q-83 0 -141.5 58.5t-58.5 141.5
t58.5 141.5t141.5 58.5t141.5 -58.5t58.5 -141.5t-58.5 -141.5t-141.5 -58.5z" />
    <glyph glyph-name="Aring" unicode="&#xc5;" 
d="M520 200l-70 -200h-400l500 1400h400l500 -1400h-400l-71 200h-459zM885 600l-135 400l-132 -400h267zM858.5 1604q44.5 48 44.5 115q0 68 -44.5 116t-107.5 48q-64 0 -108.5 -48t-44.5 -116q0 -67 44.5 -115t108.5 -48q63 0 107.5 48zM750 1411q-125 0 -212.5 94.5
t-87.5 226.5q0 133 87.5 227.5t212.5 94.5q124 0 212 -94.5t88 -227.5q0 -132 -88 -226.5t-212 -94.5z" />
    <glyph glyph-name="AE" unicode="&#xc6;" horiz-adv-x="2100" 
d="M885 600l-135 400l-132 -400h267zM1050 0l-71 200h-459l-70 -200h-400l500 1400h400l100 -280v280h1000l-100 -400h-500v-100h600l-100 -400h-500v-100h600l-100 -400h-900z" />
    <glyph glyph-name="Ccedilla" unicode="&#xc7;" horiz-adv-x="1200" 
d="M714 1l-2 -100q166 -17 166 -150q0 -151 -198 -151h-230v132h230q33 0 33 19q0 13 -132 13l-1 90v165q-183 44 -325 186q-205 205 -205 495t205 495t495 205h400l-100 -400h-300q-124 0 -212 -88t-88 -212t88 -212t212 -88h400v-400h-400q-18 0 -36 1z" />
    <glyph glyph-name="Egrave" unicode="&#xc8;" horiz-adv-x="1100" 
d="M319 2000h400l200 -500h-400zM1050 1400l-100 -400h-500v-100h600l-100 -400h-500v-100h600l-100 -400h-900v1400h1000z" />
    <glyph glyph-name="Eacute" unicode="&#xc9;" horiz-adv-x="1100" 
d="M797 1500h-400l200 500h400zM1050 1400l-100 -400h-500v-100h600l-100 -400h-500v-100h600l-100 -400h-900v1400h1000z" />
    <glyph glyph-name="Ecircumflex" unicode="&#xca;" horiz-adv-x="1100" 
d="M850 2000l200 -500h-400l-100 250l-100 -250h-400l200 500h600zM1050 1400l-100 -400h-500v-100h600l-100 -400h-500v-100h600l-100 -400h-900v1400h1000z" />
    <glyph glyph-name="Edieresis" unicode="&#xcb;" horiz-adv-x="1100" 
d="M350 1500q-83 0 -141.5 58.5t-58.5 141.5t58.5 141.5t141.5 58.5t141.5 -58.5t58.5 -141.5t-58.5 -141.5t-141.5 -58.5zM850 1500q-83 0 -141.5 58.5t-58.5 141.5t58.5 141.5t141.5 58.5t141.5 -58.5t58.5 -141.5t-58.5 -141.5t-141.5 -58.5zM1050 1400l-100 -400h-500
v-100h600l-100 -400h-500v-100h600l-100 -400h-900v1400h1000z" />
    <glyph glyph-name="Igrave" unicode="&#xcc;" horiz-adv-x="700" 
d="M550 1400v-1400h-400v1400h400zM50 2000h400l200 -500h-400z" />
    <glyph glyph-name="Iacute" unicode="&#xcd;" horiz-adv-x="700" 
d="M508 1400v-1400h-400v1400h400zM450 1500h-400l200 500h400z" />
    <glyph glyph-name="Icircumflex" unicode="&#xce;" horiz-adv-x="1100" 
d="M750 1400v-1400h-400v1400h400zM850 2000l200 -500h-400l-100 250l-100 -250h-400l200 500h600z" />
    <glyph glyph-name="Idieresis" unicode="&#xcf;" horiz-adv-x="1000" 
d="M698 1400v-1400h-400v1400h400zM250 1500q-83 0 -141.5 58.5t-58.5 141.5t58.5 141.5t141.5 58.5t141.5 -58.5t58.5 -141.5t-58.5 -141.5t-141.5 -58.5zM750 1500q-83 0 -141.5 58.5t-58.5 141.5t58.5 141.5t141.5 58.5t141.5 -58.5t58.5 -141.5t-58.5 -141.5
t-141.5 -58.5z" />
    <glyph glyph-name="Eth" unicode="&#xd0;" horiz-adv-x="1700" 
d="M750 500v-100h300q200 0 200 300t-200 300h-300v-100h300l-100 -400h-200zM350 900v500h800q500 0 500 -700t-500 -700h-800v500h-300l100 400h200z" />
    <glyph glyph-name="Ntilde" unicode="&#xd1;" horiz-adv-x="1300" 
d="M150 1533v400q150 50 275 50t225 -50q67 -33 145 -33q155 0 355 133v-400q-200 -133 -355 -133q-78 0 -145 33q-100 50 -225 50t-275 -50zM850 0l-400 664v-664h-400v1400h400l400 -700v700h400v-1400h-400z" />
    <glyph glyph-name="Ograve" unicode="&#xd2;" 
d="M750 0q-290 0 -495 205t-205 495t205 495t495 205t495 -205t205 -495t-205 -495t-495 -205zM962 488q88 88 88 212t-88 212t-212 88t-212 -88t-88 -212t88 -212t212 -88t212 88zM407 2000h400l200 -500h-400z" />
    <glyph glyph-name="Oacute" unicode="&#xd3;" 
d="M750 0q-290 0 -495 205t-205 495t205 495t495 205t495 -205t205 -495t-205 -495t-495 -205zM962 488q88 88 88 212t-88 212t-212 88t-212 -88t-88 -212t88 -212t212 -88t212 88zM893 1500h-400l200 500h400z" />
    <glyph glyph-name="Ocircumflex" unicode="&#xd4;" 
d="M750 0q-290 0 -495 205t-205 495t205 495t495 205t495 -205t205 -495t-205 -495t-495 -205zM962 488q88 88 88 212t-88 212t-212 88t-212 -88t-88 -212t88 -212t212 -88t212 88zM1050 2000l200 -500h-400l-100 250l-100 -250h-400l200 500h600z" />
    <glyph glyph-name="Otilde" unicode="&#xd5;" 
d="M750 0q-290 0 -495 205t-205 495t205 495t495 205t495 -205t205 -495t-205 -495t-495 -205zM962 488q88 88 88 212t-88 212t-212 88t-212 -88t-88 -212t88 -212t212 -88t212 88zM250 1533v400q150 50 275 50t225 -50q67 -33 145 -33q155 0 355 133v-400
q-200 -133 -355 -133q-78 0 -145 33q-100 50 -225 50t-275 -50z" />
    <glyph glyph-name="Odieresis" unicode="&#xd6;" 
d="M750 0q-290 0 -495 205t-205 495t205 495t495 205t495 -205t205 -495t-205 -495t-495 -205zM962 488q88 88 88 212t-88 212t-212 88t-212 -88t-88 -212t88 -212t212 -88t212 88zM500 1500q-83 0 -141.5 58.5t-58.5 141.5t58.5 141.5t141.5 58.5t141.5 -58.5t58.5 -141.5
t-58.5 -141.5t-141.5 -58.5zM1000 1500q-83 0 -141.5 58.5t-58.5 141.5t58.5 141.5t141.5 58.5t141.5 -58.5t58.5 -141.5t-58.5 -141.5t-141.5 -58.5z" />
    <glyph glyph-name="multiply" unicode="&#xd7;" horiz-adv-x="1218" 
d="M597 362l-94 -162h-453l329 500l-327 500h451l97 -164l111 163l457 1l-335 -503l335 -497h-465z" />
    <glyph glyph-name="Oslash" unicode="&#xd8;" 
d="M694 995q-89 -16 -156 -83q-88 -88 -88 -212q0 -71 29 -130zM810 405q86 17 152 83q88 88 88 212q0 71 -29 130zM1217 1222q14 -13 28 -27q205 -205 205 -495t-205 -495t-495 -205q-71 0 -136 12l-106 -212h-418l192 380q-14 12 -27 25q-205 205 -205 495t205 495
t495 205q73 0 141 -13l108 213h406z" />
    <glyph glyph-name="Ugrave" unicode="&#xd9;" horiz-adv-x="1300" 
d="M50 700v700h400v-700q0 -300 200 -300t200 300v700h400v-700q0 -700 -600 -700t-600 700zM312 2000h400l200 -500h-400z" />
    <glyph glyph-name="Uacute" unicode="&#xda;" horiz-adv-x="1300" 
d="M50 700v700h400v-700q0 -300 200 -300t200 300v700h400v-700q0 -700 -600 -700t-600 700zM795 1500h-400l200 500h400z" />
    <glyph glyph-name="Ucircumflex" unicode="&#xdb;" horiz-adv-x="1300" 
d="M50 700v700h400v-700q0 -300 200 -300t200 300v700h400v-700q0 -700 -600 -700t-600 700zM950 2000l200 -500h-400l-100 250l-100 -250h-400l200 500h600z" />
    <glyph glyph-name="Udieresis" unicode="&#xdc;" horiz-adv-x="1300" 
d="M50 700v700h400v-700q0 -300 200 -300t200 300v700h400v-700q0 -700 -600 -700t-600 700zM398 1500q-83 0 -141.5 58.5t-58.5 141.5t58.5 141.5t141.5 58.5t141.5 -58.5t58.5 -141.5t-58.5 -141.5t-141.5 -58.5zM898 1500q-83 0 -141.5 58.5t-58.5 141.5t58.5 141.5
t141.5 58.5t141.5 -58.5t58.5 -141.5t-58.5 -141.5t-141.5 -58.5z" />
    <glyph glyph-name="Yacute" unicode="&#xdd;" 
d="M893 1500h-400l200 500h400zM550 600l-500 800h427l273 -400l273 400h427l-500 -800v-600h-400v600z" />
    <glyph glyph-name="Thorn" unicode="&#xde;" horiz-adv-x="1400" 
d="M50 1400h400v-200h400q500 0 500 -500t-500 -500h-400v-200h-400v1400zM450 800v-200h400q100 0 100 100t-100 100h-400z" />
    <glyph glyph-name="germandbls" unicode="&#xdf;" horiz-adv-x="1300" 
d="M650 400h100q100 0 100 75t-100 75h-100v300h100q100 0 100 75t-100 75h-300l7 -1000h-407v1400h700q500 0 500 -451q0 -199 -200 -249q200 -50 200 -256q0 -444 -500 -444h-100v400z" />
    <glyph glyph-name="agrave" unicode="&#xe0;" 
d="M520 200l-70 -200h-400l500 1400h400l500 -1400h-400l-71 200h-459zM885 600l-135 400l-132 -400h267zM407 2000h400l200 -500h-400z" />
    <glyph glyph-name="aacute" unicode="&#xe1;" 
d="M520 200l-70 -200h-400l500 1400h400l500 -1400h-400l-71 200h-459zM885 600l-135 400l-132 -400h267zM893 1500h-400l200 500h400z" />
    <glyph glyph-name="acircumflex" unicode="&#xe2;" 
d="M520 200l-70 -200h-400l500 1400h400l500 -1400h-400l-71 200h-459zM885 600l-135 400l-132 -400h267zM1050 2000l200 -500h-400l-100 250l-100 -250h-400l200 500h600z" />
    <glyph glyph-name="atilde" unicode="&#xe3;" 
d="M520 200l-70 -200h-400l500 1400h400l500 -1400h-400l-71 200h-459zM885 600l-135 400l-132 -400h267zM250 1533v400q150 50 275 50t225 -50q67 -33 145 -33q155 0 355 133v-400q-200 -133 -355 -133q-78 0 -145 33q-100 50 -225 50t-275 -50z" />
    <glyph glyph-name="adieresis" unicode="&#xe4;" 
d="M520 200l-70 -200h-400l500 1400h400l500 -1400h-400l-71 200h-459zM885 600l-135 400l-132 -400h267zM500 1500q-83 0 -141.5 58.5t-58.5 141.5t58.5 141.5t141.5 58.5t141.5 -58.5t58.5 -141.5t-58.5 -141.5t-141.5 -58.5zM1000 1500q-83 0 -141.5 58.5t-58.5 141.5
t58.5 141.5t141.5 58.5t141.5 -58.5t58.5 -141.5t-58.5 -141.5t-141.5 -58.5z" />
    <glyph glyph-name="aring" unicode="&#xe5;" 
d="M520 200l-70 -200h-400l500 1400h400l500 -1400h-400l-71 200h-459zM885 600l-135 400l-132 -400h267zM858.5 1604q44.5 48 44.5 115q0 68 -44.5 116t-107.5 48q-64 0 -108.5 -48t-44.5 -116q0 -67 44.5 -115t108.5 -48q63 0 107.5 48zM750 1411q-125 0 -212.5 94.5
t-87.5 226.5q0 133 87.5 227.5t212.5 94.5q124 0 212 -94.5t88 -227.5q0 -132 -88 -226.5t-212 -94.5z" />
    <glyph glyph-name="ae" unicode="&#xe6;" horiz-adv-x="2100" 
d="M885 600l-135 400l-132 -400h267zM1050 0l-71 200h-459l-70 -200h-400l500 1400h400l100 -280v280h1000l-100 -400h-500v-100h600l-100 -400h-500v-100h600l-100 -400h-900z" />
    <glyph glyph-name="ccedilla" unicode="&#xe7;" horiz-adv-x="1200" 
d="M714 1l-2 -100q166 -17 166 -150q0 -151 -198 -151h-230v132h230q33 0 33 19q0 13 -132 13l-1 90v165q-183 44 -325 186q-205 205 -205 495t205 495t495 205h400l-100 -400h-300q-124 0 -212 -88t-88 -212t88 -212t212 -88h400v-400h-400q-18 0 -36 1z" />
    <glyph glyph-name="egrave" unicode="&#xe8;" horiz-adv-x="1100" 
d="M319 2000h400l200 -500h-400zM1050 1400l-100 -400h-500v-100h600l-100 -400h-500v-100h600l-100 -400h-900v1400h1000z" />
    <glyph glyph-name="eacute" unicode="&#xe9;" horiz-adv-x="1100" 
d="M797 1500h-400l200 500h400zM1050 1400l-100 -400h-500v-100h600l-100 -400h-500v-100h600l-100 -400h-900v1400h1000z" />
    <glyph glyph-name="ecircumflex" unicode="&#xea;" horiz-adv-x="1100" 
d="M850 2000l200 -500h-400l-100 250l-100 -250h-400l200 500h600zM1050 1400l-100 -400h-500v-100h600l-100 -400h-500v-100h600l-100 -400h-900v1400h1000z" />
    <glyph glyph-name="edieresis" unicode="&#xeb;" horiz-adv-x="1100" 
d="M350 1500q-83 0 -141.5 58.5t-58.5 141.5t58.5 141.5t141.5 58.5t141.5 -58.5t58.5 -141.5t-58.5 -141.5t-141.5 -58.5zM850 1500q-83 0 -141.5 58.5t-58.5 141.5t58.5 141.5t141.5 58.5t141.5 -58.5t58.5 -141.5t-58.5 -141.5t-141.5 -58.5zM1050 1400l-100 -400h-500
v-100h600l-100 -400h-500v-100h600l-100 -400h-900v1400h1000z" />
    <glyph glyph-name="igrave" unicode="&#xec;" horiz-adv-x="700" 
d="M550 1400v-1400h-400v1400h400zM50 2000h400l200 -500h-400z" />
    <glyph glyph-name="iacute" unicode="&#xed;" horiz-adv-x="700" 
d="M508 1400v-1400h-400v1400h400zM450 1500h-400l200 500h400z" />
    <glyph glyph-name="icircumflex" unicode="&#xee;" horiz-adv-x="1100" 
d="M750 1400v-1400h-400v1400h400zM850 2000l200 -500h-400l-100 250l-100 -250h-400l200 500h600z" />
    <glyph glyph-name="idieresis" unicode="&#xef;" horiz-adv-x="1000" 
d="M698 1400v-1400h-400v1400h400zM250 1500q-83 0 -141.5 58.5t-58.5 141.5t58.5 141.5t141.5 58.5t141.5 -58.5t58.5 -141.5t-58.5 -141.5t-141.5 -58.5zM750 1500q-83 0 -141.5 58.5t-58.5 141.5t58.5 141.5t141.5 58.5t141.5 -58.5t58.5 -141.5t-58.5 -141.5
t-141.5 -58.5z" />
    <glyph glyph-name="eth" unicode="&#xf0;" 
d="M1050 700q0 124 -88 212t-212 88t-212 -88t-88 -212t88 -212t212 -88t212 88t88 212zM1245 1195q205 -205 205 -495t-205 -495t-495 -205t-495 205t-205 495t205 495q108 108 264 173l-72 68l-134 -136l-263 246l141 153l-138 128l266 273l140 -134l127 134l264 -254
l-128 -131q471 -468 523 -520z" />
    <glyph glyph-name="ntilde" unicode="&#xf1;" horiz-adv-x="1300" 
d="M150 1533v400q150 50 275 50t225 -50q67 -33 145 -33q155 0 355 133v-400q-200 -133 -355 -133q-78 0 -145 33q-100 50 -225 50t-275 -50zM850 0l-400 664v-664h-400v1400h400l400 -700v700h400v-1400h-400z" />
    <glyph glyph-name="ograve" unicode="&#xf2;" 
d="M750 0q-290 0 -495 205t-205 495t205 495t495 205t495 -205t205 -495t-205 -495t-495 -205zM962 488q88 88 88 212t-88 212t-212 88t-212 -88t-88 -212t88 -212t212 -88t212 88zM407 2000h400l200 -500h-400z" />
    <glyph glyph-name="oacute" unicode="&#xf3;" 
d="M750 0q-290 0 -495 205t-205 495t205 495t495 205t495 -205t205 -495t-205 -495t-495 -205zM962 488q88 88 88 212t-88 212t-212 88t-212 -88t-88 -212t88 -212t212 -88t212 88zM893 1500h-400l200 500h400z" />
    <glyph glyph-name="ocircumflex" unicode="&#xf4;" 
d="M750 0q-290 0 -495 205t-205 495t205 495t495 205t495 -205t205 -495t-205 -495t-495 -205zM962 488q88 88 88 212t-88 212t-212 88t-212 -88t-88 -212t88 -212t212 -88t212 88zM1050 2000l200 -500h-400l-100 250l-100 -250h-400l200 500h600z" />
    <glyph glyph-name="otilde" unicode="&#xf5;" 
d="M750 0q-290 0 -495 205t-205 495t205 495t495 205t495 -205t205 -495t-205 -495t-495 -205zM962 488q88 88 88 212t-88 212t-212 88t-212 -88t-88 -212t88 -212t212 -88t212 88zM250 1533v400q150 50 275 50t225 -50q67 -33 145 -33q155 0 355 133v-400
q-200 -133 -355 -133q-78 0 -145 33q-100 50 -225 50t-275 -50z" />
    <glyph glyph-name="odieresis" unicode="&#xf6;" 
d="M750 0q-290 0 -495 205t-205 495t205 495t495 205t495 -205t205 -495t-205 -495t-495 -205zM962 488q88 88 88 212t-88 212t-212 88t-212 -88t-88 -212t88 -212t212 -88t212 88zM500 1500q-83 0 -141.5 58.5t-58.5 141.5t58.5 141.5t141.5 58.5t141.5 -58.5t58.5 -141.5
t-58.5 -141.5t-141.5 -58.5zM1000 1500q-83 0 -141.5 58.5t-58.5 141.5t58.5 141.5t141.5 58.5t141.5 -58.5t58.5 -141.5t-58.5 -141.5t-141.5 -58.5z" />
    <glyph glyph-name="divide" unicode="&#xf7;" horiz-adv-x="1100" 
d="M1050 900v-400h-1000v400h1000zM550 1000q-83 0 -141.5 58.5t-58.5 141.5t58.5 141.5t141.5 58.5t141.5 -58.5t58.5 -141.5t-58.5 -141.5t-141.5 -58.5zM550 0q-83 0 -141.5 58.5t-58.5 141.5t58.5 141.5t141.5 58.5t141.5 -58.5t58.5 -141.5t-58.5 -141.5t-141.5 -58.5z
" />
    <glyph glyph-name="oslash" unicode="&#xf8;" 
d="M1217 1222q14 -13 28 -27q205 -205 205 -495t-205 -495t-495 -205q-71 0 -136 12l-106 -212h-418l192 380q-14 12 -27 25q-205 205 -205 495t205 495t495 205q73 0 141 -13l108 213h406zM694 995q-89 -16 -156 -83q-88 -88 -88 -212q0 -71 29 -130zM810 405q86 17 152 83
q88 88 88 212q0 71 -29 130z" />
    <glyph glyph-name="ugrave" unicode="&#xf9;" horiz-adv-x="1300" 
d="M50 700v700h400v-700q0 -300 200 -300t200 300v700h400v-700q0 -700 -600 -700t-600 700zM312 2000h400l200 -500h-400z" />
    <glyph glyph-name="uacute" unicode="&#xfa;" horiz-adv-x="1300" 
d="M50 700v700h400v-700q0 -300 200 -300t200 300v700h400v-700q0 -700 -600 -700t-600 700zM795 1500h-400l200 500h400z" />
    <glyph glyph-name="ucircumflex" unicode="&#xfb;" horiz-adv-x="1300" 
d="M50 700v700h400v-700q0 -300 200 -300t200 300v700h400v-700q0 -700 -600 -700t-600 700zM950 2000l200 -500h-400l-100 250l-100 -250h-400l200 500h600z" />
    <glyph glyph-name="udieresis" unicode="&#xfc;" horiz-adv-x="1300" 
d="M50 700v700h400v-700q0 -300 200 -300t200 300v700h400v-700q0 -700 -600 -700t-600 700zM398 1500q-83 0 -141.5 58.5t-58.5 141.5t58.5 141.5t141.5 58.5t141.5 -58.5t58.5 -141.5t-58.5 -141.5t-141.5 -58.5zM898 1500q-83 0 -141.5 58.5t-58.5 141.5t58.5 141.5
t141.5 58.5t141.5 -58.5t58.5 -141.5t-58.5 -141.5t-141.5 -58.5z" />
    <glyph glyph-name="yacute" unicode="&#xfd;" 
d="M893 1500h-400l200 500h400zM526 700l-476 700h453l244 -364l249 364h454l-943 -1400h-457z" />
    <glyph glyph-name="thorn" unicode="&#xfe;" horiz-adv-x="1400" 
d="M50 1400h400v-200h400q500 0 500 -500t-500 -500h-400v-200h-400v1400zM450 800v-200h400q100 0 100 100t-100 100h-400z" />
    <glyph glyph-name="ydieresis" unicode="&#xff;" 
d="M503 1500q-83 0 -141.5 58.5t-58.5 141.5t58.5 141.5t141.5 58.5t141.5 -58.5t58.5 -141.5t-58.5 -141.5t-141.5 -58.5zM1003 1500q-83 0 -141.5 58.5t-58.5 141.5t58.5 141.5t141.5 58.5t141.5 -58.5t58.5 -141.5t-58.5 -141.5t-141.5 -58.5zM526 700l-476 700h453
l244 -364l249 364h454l-943 -1400h-457z" />
    <glyph glyph-name="dotlessi" unicode="&#x131;" horiz-adv-x="500" 
d="M450 1400v-1400h-400v1400h400z" />
    <glyph glyph-name="OE" unicode="&#x152;" horiz-adv-x="2200" 
d="M1050 700q0 124 -88 212t-212 88t-212 -88t-88 -212t88 -212t212 -88t212 88t88 212zM1150 124q-174 -124 -400 -124q-290 0 -495 205t-205 495t205 495t495 205q226 0 400 -124v124h1000l-100 -400h-500v-100h600l-100 -400h-500v-100h600l-100 -400h-900v124z" />
    <glyph glyph-name="oe" unicode="&#x153;" horiz-adv-x="2200" 
d="M1050 700q0 124 -88 212t-212 88t-212 -88t-88 -212t88 -212t212 -88t212 88t88 212zM1150 124q-174 -124 -400 -124q-290 0 -495 205t-205 495t205 495t495 205q226 0 400 -124v124h1000l-100 -400h-500v-100h600l-100 -400h-500v-100h600l-100 -400h-900v124z" />
    <glyph glyph-name="circumflex" unicode="&#x2c6;" horiz-adv-x="1100" 
d="M850 2000l200 -500h-400l-100 250l-100 -250h-400l200 500h600z" />
    <glyph glyph-name="caron" unicode="&#x2c7;" horiz-adv-x="1100" 
d="M550 1750l100 250h400l-200 -500h-600l-200 500h400z" />
    <glyph glyph-name="uni02C9" unicode="&#x2c9;" horiz-adv-x="900" 
d="M850 1900v-400h-800v400h800z" />
    <glyph glyph-name="breve" unicode="&#x2d8;" horiz-adv-x="1100" 
d="M50 2000h400q50 -150 100 -150t100 150h400q-250 -500 -500 -500t-500 500z" />
    <glyph glyph-name="dotaccent" unicode="&#x2d9;" horiz-adv-x="500" 
d="M250 1500q-83 0 -141.5 63t-58.5 151q0 89 58.5 152t141.5 63t141.5 -63t58.5 -152q0 -88 -58.5 -151t-141.5 -63z" />
    <glyph glyph-name="ring" unicode="&#x2da;" horiz-adv-x="700" 
d="M458.5 1607q44.5 48 44.5 115q0 68 -44.5 116t-107.5 48q-64 0 -108.5 -48t-44.5 -116q0 -67 44.5 -115t108.5 -48q63 0 107.5 48zM350 1414q-125 0 -212.5 94.5t-87.5 226.5q0 133 87.5 227.5t212.5 94.5q124 0 212 -94.5t88 -227.5q0 -132 -88 -226.5t-212 -94.5z" />
    <glyph glyph-name="ogonek" unicode="&#x2db;" horiz-adv-x="494" 
d="M399 -349q-60 -60 -144 -60q-85 0 -145 60t-60 145q0 84 60 144t145 60q84 0 144 -60q30 -30 45 -66l-106 -50q-6 18 -22 33q-25 26 -61 26q-37 0 -62.5 -25.5t-25.5 -61.5q0 -37 25.5 -62.5t62.5 -25.5q36 0 61 26q14 14 21 31l107 -48q-15 -36 -45 -66z" />
    <glyph glyph-name="tilde" unicode="&#x2dc;" horiz-adv-x="1100" 
d="M50 1533v400q150 50 275 50t225 -50q67 -33 145 -33q155 0 355 133v-400q-200 -133 -355 -133q-78 0 -145 33q-100 50 -225 50t-275 -50z" />
    <glyph glyph-name="hungarumlaut" unicode="&#x2dd;" horiz-adv-x="1246" 
d="M450 900h-400l200 500h400zM996 900h-400l200 500h400z" />
    <glyph glyph-name="endash" unicode="&#x2013;" horiz-adv-x="1100" 
d="M1050 900v-400h-1000v400h1000z" />
    <glyph glyph-name="emdash" unicode="&#x2014;" horiz-adv-x="1999" 
d="M1949 900v-400h-1899v400h1899z" />
    <glyph glyph-name="quoteleft" unicode="&#x2018;" horiz-adv-x="500" 
d="M450 1400v-600h-400v600h400z" />
    <glyph glyph-name="quoteright" unicode="&#x2019;" horiz-adv-x="500" 
d="M450 1400v-600h-400v600h400z" />
    <glyph glyph-name="quotesinglbase" unicode="&#x201a;" horiz-adv-x="500" 
d="M450 200v-600h-400v600h400z" />
    <glyph glyph-name="quotedblleft" unicode="&#x201c;" horiz-adv-x="1000" 
d="M450 1400v-600h-400v600h400zM950 1400v-600h-400v600h400z" />
    <glyph glyph-name="quotedblright" unicode="&#x201d;" horiz-adv-x="1000" 
d="M450 1400v-600h-400v600h400zM950 1400v-600h-400v600h400z" />
    <glyph glyph-name="quotedblbase" unicode="&#x201e;" horiz-adv-x="1000" 
d="M450 200v-600h-400v600h400zM950 200v-600h-400v600h400z" />
    <glyph glyph-name="bullet" unicode="&#x2022;" horiz-adv-x="500" 
d="M250 500q-83 0 -141.5 58.5t-58.5 141.5t58.5 141.5t141.5 58.5t141.5 -58.5t58.5 -141.5t-58.5 -141.5t-141.5 -58.5z" />
    <glyph glyph-name="ellipsis" unicode="&#x2026;" horiz-adv-x="1700" 
d="M1450 0q-83 0 -141.5 58.5t-58.5 141.5t58.5 141.5t141.5 58.5t141.5 -58.5t58.5 -141.5t-58.5 -141.5t-141.5 -58.5zM850 0q-83 0 -141.5 58.5t-58.5 141.5t58.5 141.5t141.5 58.5t141.5 -58.5t58.5 -141.5t-58.5 -141.5t-141.5 -58.5zM250 0q-83 0 -141.5 58.5
t-58.5 141.5t58.5 141.5t141.5 58.5t141.5 -58.5t58.5 -141.5t-58.5 -141.5t-141.5 -58.5z" />
    <glyph glyph-name="perthousand" unicode="&#x2030;" horiz-adv-x="9200" 
d="M1483 379q0 67 -47.5 114.5t-114.5 47.5t-115 -47.5t-48 -114.5q0 -68 48 -115.5t115 -47.5t114.5 47.5t47.5 115.5zM5936 324l-73 217l-72 -217h145zM3190 541v-108h162q54 0 54 54t-54 54h-162zM1943 541v-325h108q108 0 108 163q0 162 -108 162h-108zM915 757v-757
h-216v361l-216 -361l-217 359v-359h-216v757h216l217 -378l216 378h216zM9080 757l-54 -216h-270v-54h324l-54 -217h-270v-54h324l-54 -216h-487v757h541zM8269 0l-216 359v-359h-217v757h217l216 -378v378h216v-757h-216zM7782 757v-757h-216v757h216zM6809 757h216v-270
h271v270h216v-757h-216v270h-271v-270h-216v757zM6755 757l-54 -216h-162q-67 0 -115 -47.5t-48 -114.5q0 -68 48 -115.5t115 -47.5h216v-216h-216q-157 0 -268 111t-111 268q0 156 111 267t268 111h216zM5738 108l-38 -108h-216l271 757h216l270 -757h-216l-38 108h-249z
M5484 757v-757h-216v361l-216 -361l-217 359v-359h-216v757h216l217 -378l216 378h216zM3406 0l-216 216v-216h-216v757h378q270 0 270 -270q0 -217 -173 -260l197 -196v726h216l216 -378v378h217v-757h-217l-216 359v-359h-456zM2943 757l-54 -216h-271v-54h325l-54 -217
h-271v-54h325l-54 -216h-487v757h541zM1727 0v757h378q271 0 271 -378q0 -379 -271 -379h-378zM1321 0q-157 0 -268 111t-111 268q0 156 111 267t268 111q156 0 267 -111t111 -267q0 -157 -111 -268t-267 -111z" />
    <glyph glyph-name="guilsinglleft" unicode="&#x2039;" horiz-adv-x="1200" 
d="M50 900l1100 500v-400l-700 -300l700 -300v-400l-1100 500v400z" />
    <glyph glyph-name="guilsinglright" unicode="&#x203a;" horiz-adv-x="1200" 
d="M1150 500l-1100 -500v400l700 300l-700 300v400l1100 -500v-400z" />
    <glyph glyph-name="Euro" unicode="&#x20ac;" horiz-adv-x="1550" 
d="M627 500q5 -6 11 -12q88 -88 212 -88t212 88q48 48 70 108l367 -163q-51 -125 -154 -228q-205 -205 -495 -205t-495 205q-130 130 -178 295h-127v400h127q48 165 178 295q205 205 495 205t495 -205q103 -103 155 -228l-365 -171q-21 64 -73 116q-88 88 -212 88t-212 -88
q-6 -6 -11 -12h323l-100 -400h-223z" />
    <glyph glyph-name="trademark" unicode="&#x2122;" horiz-adv-x="1174" 
d="M353 1258v-358h-143v358h-160v143h465v-143h-162zM1124 1401v-501h-143v239l-72 -239h-143l-71 238v-238h-143v501h178l108 -286l107 286h179z" />
    <glyph glyph-name="minus" unicode="&#x2212;" horiz-adv-x="1100" 
d="M1050 900v-400h-1000v400h1000z" />
    <glyph glyph-name="uni0009" horiz-adv-x="508" 
 />
    </font>
</defs>
</svg>
